<svg version="1.1" xmlns="http://www.w3.org/2000/svg" viewBox="0 0 1080.928189884191 1315.7549044040236" width="1080.928189884191" height="1315.7549044040236">
  <!-- svg-source:excalidraw -->
  
  <defs>
    <style class="style-fonts">
      @font-face {
        font-family: "Virgil";
        src: url("https://excalidraw.com/Virgil.woff2");
      }
      @font-face {
        font-family: "Cascadia";
        src: url("https://excalidraw.com/Cascadia.woff2");
      }
    </style>
    
  </defs>
  <rect x="0" y="0" width="1080.928189884191" height="1315.7549044040236" fill="#ffffff"></rect><g stroke-linecap="round" transform="translate(233.32646543373858 117.162248578429) rotate(0 128.5 44)"><path d="M22 0 M22 0 C106.77 0, 191.55 0, 235 0 M22 0 C93.57 0, 165.13 0, 235 0 M235 0 C249.67 0, 257 7.33, 257 22 M235 0 C249.67 0, 257 7.33, 257 22 M257 22 C257 30.81, 257 39.63, 257 66 M257 22 C257 32.64, 257 43.28, 257 66 M257 66 C257 80.67, 249.67 88, 235 88 M257 66 C257 80.67, 249.67 88, 235 88 M235 88 C181.64 88, 128.28 88, 22 88 M235 88 C183.26 88, 131.53 88, 22 88 M22 88 C7.33 88, 0 80.67, 0 66 M22 88 C7.33 88, 0 80.67, 0 66 M0 66 C0 56.77, 0 47.55, 0 22 M0 66 C0 54.63, 0 43.26, 0 22 M0 22 C0 7.33, 7.33 0, 22 0 M0 22 C0 7.33, 7.33 0, 22 0" stroke="#1e1e1e" stroke-width="1" fill="none"></path></g><g transform="translate(258.3597982584456 145.06224857842898) rotate(0 103.46666717529297 16.099999999999994)"><text x="103.46666717529297" y="0" font-family="Helvetica, Segoe UI Emoji" font-size="28px" fill="#1e1e1e" text-anchor="middle" style="white-space: pre;" direction="ltr" dominant-baseline="text-before-edge">WaitingForPlane</text></g><g stroke-linecap="round" transform="translate(233.32646543373858 443.3844708006512) rotate(0 128.5 44)"><path d="M22 0 M22 0 C94.96 0, 167.92 0, 235 0 M22 0 C86.75 0, 151.5 0, 235 0 M235 0 C249.67 0, 257 7.33, 257 22 M235 0 C249.67 0, 257 7.33, 257 22 M257 22 C257 35.25, 257 48.49, 257 66 M257 22 C257 31.27, 257 40.53, 257 66 M257 66 C257 80.67, 249.67 88, 235 88 M257 66 C257 80.67, 249.67 88, 235 88 M235 88 C169.33 88, 103.66 88, 22 88 M235 88 C187.27 88, 139.53 88, 22 88 M22 88 C7.33 88, 0 80.67, 0 66 M22 88 C7.33 88, 0 80.67, 0 66 M0 66 C0 56.62, 0 47.24, 0 22 M0 66 C0 54.58, 0 43.16, 0 22 M0 22 C0 7.33, 7.33 0, 22 0 M0 22 C0 7.33, 7.33 0, 22 0" stroke="#1e1e1e" stroke-width="1" fill="none"></path></g><g transform="translate(268.44313413491045 471.28447080065115) rotate(0 93.38333129882812 16.099999999999994)"><text x="93.38333129882812" y="0" font-family="Helvetica, Segoe UI Emoji" font-size="28px" fill="#1e1e1e" text-anchor="middle" style="white-space: pre;" direction="ltr" dominant-baseline="text-before-edge">PlaneAssigned</text></g><g stroke-linecap="round" transform="translate(684.1347097569885 768.6259497473243) rotate(0 128.5 44)"><path d="M22 0 M22 0 C79.86 0, 137.73 0, 235 0 M22 0 C86.03 0, 150.06 0, 235 0 M235 0 C249.67 0, 257 7.33, 257 22 M235 0 C249.67 0, 257 7.33, 257 22 M257 22 C257 39.3, 257 56.6, 257 66 M257 22 C257 31.87, 257 41.73, 257 66 M257 66 C257 80.67, 249.67 88, 235 88 M257 66 C257 80.67, 249.67 88, 235 88 M235 88 C170.18 88, 105.36 88, 22 88 M235 88 C187.58 88, 140.16 88, 22 88 M22 88 C7.33 88, 0 80.67, 0 66 M22 88 C7.33 88, 0 80.67, 0 66 M0 66 C0 54.78, 0 43.55, 0 22 M0 66 C0 57.16, 0 48.33, 0 22 M0 22 C0 7.33, 7.33 0, 22 0 M0 22 C0 7.33, 7.33 0, 22 0" stroke="#1e1e1e" stroke-width="1" fill="none"></path></g><g transform="translate(718.5263799840393 796.5259497473243) rotate(0 94.10832977294922 16.100000000000023)"><text x="94.10832977294922" y="0" font-family="Helvetica, Segoe UI Emoji" font-size="28px" fill="#1e1e1e" text-anchor="middle" style="white-space: pre;" direction="ltr" dominant-baseline="text-before-edge">WaitingForTaxi</text></g><g stroke-linecap="round" transform="translate(233.32646543373858 900.0523725787215) rotate(0 128.5 44)"><path d="M22 0 M22 0 C92.5 0, 163.01 0, 235 0 M22 0 C73.36 0, 124.71 0, 235 0 M235 0 C249.67 0, 257 7.33, 257 22 M235 0 C249.67 0, 257 7.33, 257 22 M257 22 C257 37.96, 257 53.92, 257 66 M257 22 C257 32.7, 257 43.41, 257 66 M257 66 C257 80.67, 249.67 88, 235 88 M257 66 C257 80.67, 249.67 88, 235 88 M235 88 C191.81 88, 148.62 88, 22 88 M235 88 C182.5 88, 130 88, 22 88 M22 88 C7.33 88, 0 80.67, 0 66 M22 88 C7.33 88, 0 80.67, 0 66 M0 66 C0 54.92, 0 43.83, 0 22 M0 66 C0 48.73, 0 31.47, 0 22 M0 22 C0 7.33, 7.33 0, 22 0 M0 22 C0 7.33, 7.33 0, 22 0" stroke="#1e1e1e" stroke-width="1" fill="none"></path></g><g transform="translate(316.70980054726397 927.9523725787216) rotate(0 45.11666488647461 16.100000000000023)"><text x="45.11666488647461" y="0" font-family="Helvetica, Segoe UI Emoji" font-size="28px" fill="#1e1e1e" text-anchor="middle" style="white-space: pre;" direction="ltr" dominant-baseline="text-before-edge">Taxiing</text></g><g stroke-linecap="round" transform="translate(10 1129.161641620028) rotate(0 128.5 44)"><path d="M22 0 M22 0 C82.62 0, 143.24 0, 235 0 M22 0 C86.72 0, 151.43 0, 235 0 M235 0 C249.67 0, 257 7.33, 257 22 M235 0 C249.67 0, 257 7.33, 257 22 M257 22 C257 34.38, 257 46.77, 257 66 M257 22 C257 32.83, 257 43.66, 257 66 M257 66 C257 80.67, 249.67 88, 235 88 M257 66 C257 80.67, 249.67 88, 235 88 M235 88 C163.9 88, 92.79 88, 22 88 M235 88 C174.08 88, 113.15 88, 22 88 M22 88 C7.33 88, 0 80.67, 0 66 M22 88 C7.33 88, 0 80.67, 0 66 M0 66 C0 56.98, 0 47.95, 0 22 M0 66 C0 57.08, 0 48.17, 0 22 M0 22 C0 7.33, 7.33 0, 22 0 M0 22 C0 7.33, 7.33 0, 22 0" stroke="#1e1e1e" stroke-width="1" fill="none"></path></g><g transform="translate(91.81666564941406 1157.0616416200278) rotate(0 46.68333435058594 16.100000000000023)"><text x="46.68333435058594" y="0" font-family="Helvetica, Segoe UI Emoji" font-size="28px" fill="#1e1e1e" text-anchor="middle" style="white-space: pre;" direction="ltr" dominant-baseline="text-before-edge">Takeoff</text></g><g stroke-linecap="round" transform="translate(462.0034419053501 1129.161641620028) rotate(0 128.49999999999994 44)"><path d="M22 0 M22 0 C91.41 0, 160.82 0, 235 0 M22 0 C70.6 0, 119.2 0, 235 0 M235 0 C249.67 0, 257 7.33, 257 22 M235 0 C249.67 0, 257 7.33, 257 22 M257 22 C257 32.09, 257 42.19, 257 66 M257 22 C257 30.93, 257 39.86, 257 66 M257 66 C257 80.67, 249.67 88, 235 88 M257 66 C257 80.67, 249.67 88, 235 88 M235 88 C179.69 88, 124.38 88, 22 88 M235 88 C170.4 88, 105.8 88, 22 88 M22 88 C7.33 88, 0 80.67, 0 66 M22 88 C7.33 88, 0 80.67, 0 66 M0 66 C0 48.94, 0 31.88, 0 22 M0 66 C0 49.47, 0 32.94, 0 22 M0 22 C0 7.33, 7.33 0, 22 0 M0 22 C0 7.33, 7.33 0, 22 0" stroke="#1e1e1e" stroke-width="1" fill="none"></path></g><g transform="translate(537.6034403794712 1157.0616416200278) rotate(0 52.900001525878906 16.100000000000023)"><text x="52.900001525878906" y="0" font-family="Helvetica, Segoe UI Emoji" font-size="28px" fill="#1e1e1e" text-anchor="middle" style="white-space: pre;" direction="ltr" dominant-baseline="text-before-edge">Crashed</text></g><g stroke-linecap="round" transform="translate(339.3264654337386 10) rotate(0 22.5 22.5)"><path d="M45 22.5 C45 23.8, 44.88 25.12, 44.66 26.41 C44.43 27.69, 44.09 28.97, 43.64 30.2 C43.2 31.42, 42.64 32.62, 41.99 33.75 C41.33 34.88, 40.57 35.97, 39.74 36.96 C38.9 37.96, 37.96 38.9, 36.96 39.74 C35.97 40.57, 34.88 41.33, 33.75 41.99 C32.62 42.64, 31.42 43.2, 30.2 43.64 C28.97 44.09, 27.69 44.43, 26.41 44.66 C25.12 44.88, 23.8 45, 22.5 45 C21.2 45, 19.88 44.88, 18.59 44.66 C17.31 44.43, 16.03 44.09, 14.8 43.64 C13.58 43.2, 12.38 42.64, 11.25 41.99 C10.12 41.33, 9.03 40.57, 8.04 39.74 C7.04 38.9, 6.1 37.96, 5.26 36.96 C4.43 35.97, 3.67 34.88, 3.01 33.75 C2.36 32.62, 1.8 31.42, 1.36 30.2 C0.91 28.97, 0.57 27.69, 0.34 26.41 C0.12 25.12, 0 23.8, 0 22.5 C0 21.2, 0.12 19.88, 0.34 18.59 C0.57 17.31, 0.91 16.03, 1.36 14.8 C1.8 13.58, 2.36 12.38, 3.01 11.25 C3.67 10.12, 4.43 9.03, 5.26 8.04 C6.1 7.04, 7.04 6.1, 8.04 5.26 C9.03 4.43, 10.12 3.67, 11.25 3.01 C12.38 2.36, 13.58 1.8, 14.8 1.36 C16.03 0.91, 17.31 0.57, 18.59 0.34 C19.88 0.12, 21.2 0, 22.5 0 C23.8 0, 25.12 0.12, 26.41 0.34 C27.69 0.57, 28.97 0.91, 30.2 1.36 C31.42 1.8, 32.62 2.36, 33.75 3.01 C34.88 3.67, 35.97 4.43, 36.96 5.26 C37.96 6.1, 38.9 7.04, 39.74 8.04 C40.57 9.03, 41.33 10.12, 41.99 11.25 C42.64 12.38, 43.2 13.58, 43.64 14.8 C44.09 16.03, 44.43 17.31, 44.66 18.59 C44.88 19.88, 44.94 21.85, 45 22.5 C45.06 23.15, 45.06 21.85, 45 22.5" stroke="none" stroke-width="0" fill="#1e1e1e"></path><path d="M45 22.5 C45 23.8, 44.88 25.12, 44.66 26.41 C44.43 27.69, 44.09 28.97, 43.64 30.2 C43.2 31.42, 42.64 32.62, 41.99 33.75 C41.33 34.88, 40.57 35.97, 39.74 36.96 C38.9 37.96, 37.96 38.9, 36.96 39.74 C35.97 40.57, 34.88 41.33, 33.75 41.99 C32.62 42.64, 31.42 43.2, 30.2 43.64 C28.97 44.09, 27.69 44.43, 26.41 44.66 C25.12 44.88, 23.8 45, 22.5 45 C21.2 45, 19.88 44.88, 18.59 44.66 C17.31 44.43, 16.03 44.09, 14.8 43.64 C13.58 43.2, 12.38 42.64, 11.25 41.99 C10.12 41.33, 9.03 40.57, 8.04 39.74 C7.04 38.9, 6.1 37.96, 5.26 36.96 C4.43 35.97, 3.67 34.88, 3.01 33.75 C2.36 32.62, 1.8 31.42, 1.36 30.2 C0.91 28.97, 0.57 27.69, 0.34 26.41 C0.12 25.12, 0 23.8, 0 22.5 C0 21.2, 0.12 19.88, 0.34 18.59 C0.57 17.31, 0.91 16.03, 1.36 14.8 C1.8 13.58, 2.36 12.38, 3.01 11.25 C3.67 10.12, 4.43 9.03, 5.26 8.04 C6.1 7.04, 7.04 6.1, 8.04 5.26 C9.03 4.43, 10.12 3.67, 11.25 3.01 C12.38 2.36, 13.58 1.8, 14.8 1.36 C16.03 0.91, 17.31 0.57, 18.59 0.34 C19.88 0.12, 21.2 0, 22.5 0 C23.8 0, 25.12 0.12, 26.41 0.34 C27.69 0.57, 28.97 0.91, 30.2 1.36 C31.42 1.8, 32.62 2.36, 33.75 3.01 C34.88 3.67, 35.97 4.43, 36.96 5.26 C37.96 6.1, 38.9 7.04, 39.74 8.04 C40.57 9.03, 41.33 10.12, 41.99 11.25 C42.64 12.38, 43.2 13.58, 43.64 14.8 C44.09 16.03, 44.43 17.31, 44.66 18.59 C44.88 19.88, 44.94 21.85, 45 22.5 C45.06 23.15, 45.06 21.85, 45 22.5" stroke="#1e1e1e" stroke-width="1" fill="none"></path></g><g transform="translate(388.11292652661564 231.13715701352206) rotate(0 72.21666717529297 11.5)"><text x="72.21666717529297" y="0" font-family="Helvetica, Segoe UI Emoji" font-size="20px" fill="#1e1e1e" text-anchor="middle" style="white-space: pre;" direction="ltr" dominant-baseline="text-before-edge">Receive callsign</text></g><g transform="translate(388.11292652661564 333.16861458692784) rotate(0 27.78333282470703 11.5)"><text x="27.78333282470703" y="0" font-family="Helvetica, Segoe UI Emoji" font-size="20px" fill="#1e1e1e" text-anchor="middle" style="white-space: pre;" direction="ltr" dominant-baseline="text-before-edge">[Valid]</text></g><g transform="translate(597.7918824103842 201.82645330344258) rotate(0 34.45833206176758 11.5)"><text x="34.45833206176758" y="0" font-family="Helvetica, Segoe UI Emoji" font-size="20px" fill="#1e1e1e" text-anchor="middle" style="white-space: pre;" direction="ltr" dominant-baseline="text-before-edge">[Invalid]</text></g><g transform="translate(388.11292652661564 393.5200701928119) rotate(0 69.4749984741211 11.5)"><text x="69.4749984741211" y="0" font-family="Helvetica, Segoe UI Emoji" font-size="20px" fill="#1e1e1e" text-anchor="middle" style="white-space: pre;" direction="ltr" dominant-baseline="text-before-edge">Send plane info</text></g><g transform="translate(388.11292652661564 560.1685209678901) rotate(0 153.8333282470703 11.5)"><text x="153.8333282470703" y="0" font-family="Helvetica, Segoe UI Emoji" font-size="20px" fill="#1e1e1e" text-anchor="middle" style="white-space: pre;" direction="ltr" dominant-baseline="text-before-edge">Recv. container ("&lt;weight&gt; &lt;val&gt;")</text></g><g transform="translate(388.11292652661564 654.5650867034794) rotate(0 76.55833435058594 11.5)"><text x="76.55833435058594" y="0" font-family="Helvetica, Segoe UI Emoji" font-size="20px" fill="#1e1e1e" text-anchor="middle" style="white-space: pre;" direction="ltr" dominant-baseline="text-before-edge">["END" and valid]</text></g><g transform="translate(751.9225138452705 533.4195036461648) rotate(0 79.48332977294922 11.5)"><text x="79.48332977294922" y="0" font-family="Helvetica, Segoe UI Emoji" font-size="20px" fill="#1e1e1e" text-anchor="middle" style="white-space: pre;" direction="ltr" dominant-baseline="text-before-edge">[Error or next line]</text></g><g transform="translate(388.11292652661564 702.1737455238389) rotate(0 49.46666717529297 11.5)"><text x="49.46666717529297" y="0" font-family="Helvetica, Segoe UI Emoji" font-size="20px" fill="#1e1e1e" text-anchor="middle" style="white-space: pre;" direction="ltr" dominant-baseline="text-before-edge">Load plane</text></g><g transform="translate(388.11292652661564 731.492432862834) rotate(0 87.80833435058594 11.5)"><text x="87.80833435058594" y="0" font-family="Helvetica, Segoe UI Emoji" font-size="20px" fill="#1e1e1e" text-anchor="middle" style="white-space: pre;" direction="ltr" dominant-baseline="text-before-edge">Send loading config</text></g><g transform="translate(388.11292652661564 760.8111202018291) rotate(0 101.69999694824219 11.5)"><text x="101.69999694824219" y="0" font-family="Helvetica, Segoe UI Emoji" font-size="20px" fill="#1e1e1e" text-anchor="middle" style="white-space: pre;" direction="ltr" dominant-baseline="text-before-edge">Request taxi clearance</text></g><g transform="translate(533.0213002919182 819.0210767749714) rotate(0 41.13333511352539 11.5)"><text x="41.13333511352539" y="0" font-family="Helvetica, Segoe UI Emoji" font-size="20px" fill="#1e1e1e" text-anchor="middle" style="white-space: pre;" direction="ltr" dominant-baseline="text-before-edge">[rejected]</text></g><g transform="translate(388.11292652661564 845.4380386584612) rotate(0 39.474998474121094 11.5)"><text x="39.474998474121094" y="0" font-family="Helvetica, Segoe UI Emoji" font-size="20px" fill="#1e1e1e" text-anchor="middle" style="white-space: pre;" direction="ltr" dominant-baseline="text-before-edge">[granted]</text></g><g transform="translate(975.6448570594839 778.9157989910933) rotate(0 47.641666412353516 11.5)"><text x="47.641666412353516" y="0" font-family="Helvetica, Segoe UI Emoji" font-size="20px" fill="#1e1e1e" text-anchor="middle" style="white-space: pre;" direction="ltr" dominant-baseline="text-before-edge">"CANCEL"</text></g><g stroke-linecap="round" transform="translate(340.3264654337386 279.0552565337607) rotate(0 21.5 21.5)"><path d="M22 0 C28.16 6.45, 34.32 12.9, 43 22 M22 0 C27.09 5.33, 32.18 10.67, 43 22 M43 22 C38.67 26.33, 34.34 30.66, 22 43 M43 22 C36.43 28.57, 29.87 35.13, 22 43 M22 43 C14.59 35.92, 7.17 28.85, 0 22 M22 43 C13.6 34.99, 5.21 26.97, 0 22 M0 22 C5.48 16.52, 10.97 11.03, 22 0 M0 22 C8.43 13.57, 16.85 5.15, 22 0" stroke="#1e1e1e" stroke-width="1" fill="none"></path></g><g stroke-linecap="round" transform="translate(340.3264654337386 610.0226158030036) rotate(0 21.5 21.5)"><path d="M22 0 C27.01 5.25, 32.02 10.5, 43 22 M22 0 C26.44 4.66, 30.89 9.31, 43 22 M43 22 C34.87 30.13, 26.74 38.26, 22 43 M43 22 C36.31 28.69, 29.62 35.38, 22 43 M22 43 C14.12 35.48, 6.25 27.96, 0 22 M22 43 C13.95 35.32, 5.9 27.64, 0 22 M0 22 C5.17 16.83, 10.34 11.66, 22 0 M0 22 C7.52 14.48, 15.05 6.95, 22 0" stroke="#1e1e1e" stroke-width="1" fill="none"></path></g><g stroke-linecap="round" transform="translate(340.3264654337386 788.6740572416082) rotate(0 21.5 21.5)"><path d="M22 0 C26.97 5.21, 31.94 10.41, 43 22 M22 0 C29.52 7.87, 37.03 15.75, 43 22 M43 22 C37.39 27.61, 31.78 33.22, 22 43 M43 22 C36.56 28.44, 30.12 34.88, 22 43 M22 43 C15.48 36.78, 8.97 30.56, 0 22 M22 43 C17.26 38.47, 12.52 33.95, 0 22 M0 22 C5.01 16.99, 10.03 11.97, 22 0 M0 22 C5.02 16.98, 10.03 11.97, 22 0" stroke="#1e1e1e" stroke-width="1" fill="none"></path></g><g stroke-linecap="round" transform="translate(340.3264654337386 1037.5387851380601) rotate(0 21.5 21.499999999999943)"><path d="M22 0 C29.08 7.42, 36.16 14.84, 43 22 M22 0 C30.2 8.59, 38.4 17.18, 43 22 M43 22 C38.23 26.77, 33.45 31.55, 22 43 M43 22 C35.55 29.45, 28.1 36.9, 22 43 M22 43 C16.19 37.45, 10.38 31.9, 0 22 M22 43 C13.7 35.07, 5.39 27.15, 0 22 M0 22 C5.98 16.02, 11.97 10.03, 22 0 M0 22 C5.64 16.36, 11.28 10.72, 22 0" stroke="#1e1e1e" stroke-width="1" fill="none"></path></g><g stroke-linecap="round"><g transform="translate(361.382558572946 61.65042815737178) rotate(0 0 20.281538079122555)"><path d="M0 0 C0 8.35, 0 16.7, 0 40.56 M0 0 C0 11.49, 0 22.98, 0 40.56" stroke="#1e1e1e" stroke-width="1" fill="none"></path></g><g transform="translate(361.382558572946 61.65042815737178) rotate(0 0 20.281538079122555)"><path d="M-6.94 21.5 C-5.51 25.43, -4.08 29.35, 0 40.56 M-6.94 21.5 C-4.97 26.9, -3.01 32.3, 0 40.56" stroke="#1e1e1e" stroke-width="1" fill="none"></path></g><g transform="translate(361.382558572946 61.65042815737178) rotate(0 0 20.281538079122555)"><path d="M6.94 21.5 C5.51 25.43, 4.08 29.35, 0 40.56 M6.94 21.5 C4.97 26.9, 3.01 32.3, 0 40.56" stroke="#1e1e1e" stroke-width="1" fill="none"></path></g></g><mask></mask><g stroke-linecap="round"><g transform="translate(361.382558572946 219.67741235720163) rotate(0 0 24.08432646895804)"><path d="M0 0 C0 19.13, 0 38.26, 0 48.17 M0 0 C0 15.19, 0 30.37, 0 48.17" stroke="#1e1e1e" stroke-width="1" fill="none"></path></g><g transform="translate(361.382558572946 219.67741235720163) rotate(0 0 24.08432646895804)"><path d="M-8.24 25.54 C-4.97 34.52, -1.7 43.51, 0 48.17 M-8.24 25.54 C-5.64 32.67, -3.04 39.81, 0 48.17" stroke="#1e1e1e" stroke-width="1" fill="none"></path></g><g transform="translate(361.382558572946 219.67741235720163) rotate(0 0 24.08432646895804)"><path d="M8.24 25.54 C4.97 34.52, 1.7 43.51, 0 48.17 M8.24 25.54 C5.64 32.67, 3.04 39.81, 0 48.17" stroke="#1e1e1e" stroke-width="1" fill="none"></path></g></g><mask></mask><g stroke-linecap="round"><g transform="translate(391.80486569162986 299.95850058706174) rotate(0 95.06970974588694 -73.9431075801343)"><path d="M0 0 C65.32 0, 130.65 0, 190.14 0 M0 0 C63.21 0, 126.43 0, 190.14 0 M190.14 0 C190.14 -42.95, 190.14 -85.9, 190.14 -147.89 M190.14 0 C190.14 -46.2, 190.14 -92.41, 190.14 -147.89 M190.14 -147.89 C172.79 -147.89, 155.45 -147.89, 114.08 -147.89 M190.14 -147.89 C168.43 -147.89, 146.72 -147.89, 114.08 -147.89" stroke="#1e1e1e" stroke-width="1" fill="none"></path></g><g transform="translate(391.80486569162986 299.95850058706174) rotate(0 95.06970974588694 -73.9431075801343)"><path d="M142.27 -158.15 C132.59 -154.62, 122.9 -151.1, 114.08 -147.89 M142.27 -158.15 C132.9 -154.74, 123.53 -151.32, 114.08 -147.89" stroke="#1e1e1e" stroke-width="1" fill="none"></path></g><g transform="translate(391.80486569162986 299.95850058706174) rotate(0 95.06970974588694 -73.9431075801343)"><path d="M142.27 -137.63 C132.59 -141.15, 122.9 -144.68, 114.08 -147.89 M142.27 -137.63 C132.9 -141.04, 123.53 -144.45, 114.08 -147.89" stroke="#1e1e1e" stroke-width="1" fill="none"></path></g></g><mask></mask><g stroke-linecap="round"><g transform="translate(361.382558572946 330.38080770574555) rotate(0 0 49.013717024546196)"><path d="M0 0 C0 37.67, 0 75.34, 0 98.03 M0 0 C0 32.1, 0 64.2, 0 98.03" stroke="#1e1e1e" stroke-width="1" fill="none"></path></g><g transform="translate(361.382558572946 330.38080770574555) rotate(0 0 49.013717024546196)"><path d="M-10.26 69.84 C-6.32 80.67, -2.37 91.5, 0 98.03 M-10.26 69.84 C-6.9 79.07, -3.54 88.3, 0 98.03" stroke="#1e1e1e" stroke-width="1" fill="none"></path></g><g transform="translate(361.382558572946 330.38080770574555) rotate(0 0 49.013717024546196)"><path d="M10.26 69.84 C6.32 80.67, 2.37 91.5, 0 98.03 M10.26 69.84 C6.9 79.07, 3.54 88.3, 0 98.03" stroke="#1e1e1e" stroke-width="1" fill="none"></path></g></g><mask></mask><g stroke-linecap="round"><g transform="translate(360.0413520687914 542.0234219172454) rotate(0 0 27.06782174677977)"><path d="M0 0 C0 12.88, 0 25.76, 0 54.14 M0 0 C0 15.6, 0 31.19, 0 54.14" stroke="#1e1e1e" stroke-width="1" fill="none"></path></g><g transform="translate(360.0413520687914 542.0234219172454) rotate(0 0 27.06782174677977)"><path d="M-9.26 28.7 C-7.06 34.75, -4.85 40.8, 0 54.14 M-9.26 28.7 C-6.59 36.03, -3.92 43.36, 0 54.14" stroke="#1e1e1e" stroke-width="1" fill="none"></path></g><g transform="translate(360.0413520687914 542.0234219172454) rotate(0 0 27.06782174677977)"><path d="M9.26 28.7 C7.06 34.75, 4.85 40.8, 0 54.14 M9.26 28.7 C6.59 36.03, 3.92 43.36, 0 54.14" stroke="#1e1e1e" stroke-width="1" fill="none"></path></g></g><mask></mask><g stroke-linecap="round"><g transform="translate(388.91369526535664 631.3472336816187) rotate(0 175.03858062917584 -76.24103125342975)"><path d="M0 0 C137.38 0, 274.76 0, 350.08 0 M0 0 C73.58 0, 147.16 0, 350.08 0 M350.08 0 C350.08 -36.51, 350.08 -73.02, 350.08 -152.48 M350.08 0 C350.08 -45.4, 350.08 -90.8, 350.08 -152.48 M350.08 -152.48 C267.7 -152.48, 185.32 -152.48, 112.78 -152.48 M350.08 -152.48 C258.82 -152.48, 167.57 -152.48, 112.78 -152.48" stroke="#1e1e1e" stroke-width="1" fill="none"></path></g><g transform="translate(388.91369526535664 631.3472336816187) rotate(0 175.03858062917584 -76.24103125342975)"><path d="M140.97 -162.74 C129.91 -158.72, 118.85 -154.69, 112.78 -152.48 M140.97 -162.74 C135.05 -160.59, 129.12 -158.43, 112.78 -152.48" stroke="#1e1e1e" stroke-width="1" fill="none"></path></g><g transform="translate(388.91369526535664 631.3472336816187) rotate(0 175.03858062917584 -76.24103125342975)"><path d="M140.97 -142.22 C129.91 -146.25, 118.85 -150.27, 112.78 -152.48 M140.97 -142.22 C135.05 -144.38, 129.12 -146.53, 112.78 -152.48" stroke="#1e1e1e" stroke-width="1" fill="none"></path></g></g><mask></mask><g stroke-linecap="round"><g transform="translate(361.53570240945305 659.3211813169295) rotate(0 0 60.16965177132175)"><path d="M0 0 C0 36.31, 0 72.61, 0 120.34 M0 0 C0 42.93, 0 85.87, 0 120.34" stroke="#1e1e1e" stroke-width="1" fill="none"></path></g><g transform="translate(361.53570240945305 659.3211813169295) rotate(0 0 60.16965177132175)"><path d="M-10.26 92.15 C-7.16 100.65, -4.07 109.16, 0 120.34 M-10.26 92.15 C-6.6 102.21, -2.94 112.26, 0 120.34" stroke="#1e1e1e" stroke-width="1" fill="none"></path></g><g transform="translate(361.53570240945305 659.3211813169295) rotate(0 0 60.16965177132175)"><path d="M10.26 92.15 C7.16 100.65, 4.07 109.16, 0 120.34 M10.26 92.15 C6.6 102.21, 2.94 112.26, 0 120.34" stroke="#1e1e1e" stroke-width="1" fill="none"></path></g></g><mask></mask><g stroke-linecap="round"><g transform="translate(386.33845566287414 811.4266485336904) rotate(0 145.40473406332626 0)"><path d="M0 0 C108.01 0, 216.02 0, 290.81 0 M0 0 C92.13 0, 184.27 0, 290.81 0" stroke="#1e1e1e" stroke-width="1" fill="none"></path></g><g transform="translate(386.33845566287414 811.4266485336904) rotate(0 145.40473406332626 0)"><path d="M262.62 10.26 C273.09 6.45, 283.56 2.64, 290.81 0 M262.62 10.26 C271.55 7.01, 280.48 3.76, 290.81 0" stroke="#1e1e1e" stroke-width="1" fill="none"></path></g><g transform="translate(386.33845566287414 811.4266485336904) rotate(0 145.40473406332626 0)"><path d="M262.62 -10.26 C273.09 -6.45, 283.56 -2.64, 290.81 0 M262.62 -10.26 C271.55 -7.01, 280.48 -3.76, 290.81 0" stroke="#1e1e1e" stroke-width="1" fill="none"></path></g></g><mask></mask><g stroke-linecap="round"><g transform="translate(948.2673062970648 810.3592493899598) rotate(0 37.3589700305663 27.218678165126903)"><path d="M0 0 C29.02 0, 58.04 0, 74.72 0 M0 0 C24.02 0, 48.04 0, 74.72 0 M74.72 0 C74.72 19.66, 74.72 39.32, 74.72 54.44 M74.72 0 C74.72 19.57, 74.72 39.14, 74.72 54.44" stroke="#1e1e1e" stroke-width="1" fill="none"></path></g><g transform="translate(948.2673062970648 810.3592493899598) rotate(0 37.3589700305663 27.218678165126903)"><path d="M65.41 28.86 C69.02 38.79, 72.64 48.73, 74.72 54.44 M65.41 28.86 C68.4 37.08, 71.39 45.3, 74.72 54.44" stroke="#1e1e1e" stroke-width="1" fill="none"></path></g><g transform="translate(948.2673062970648 810.3592493899598) rotate(0 37.3589700305663 27.218678165126903)"><path d="M84.03 28.86 C80.41 38.79, 76.8 48.73, 74.72 54.44 M84.03 28.86 C81.03 37.08, 78.04 45.3, 74.72 54.44" stroke="#1e1e1e" stroke-width="1" fill="none"></path></g></g><mask></mask><g stroke-linecap="round" transform="translate(1001.0011068199206 869.2799532583722) rotate(0 22.5 22.5)"><path d="M45 22.5 C45 23.8, 44.88 25.12, 44.66 26.41 C44.43 27.69, 44.09 28.97, 43.64 30.2 C43.2 31.42, 42.64 32.62, 41.99 33.75 C41.33 34.88, 40.57 35.97, 39.74 36.96 C38.9 37.96, 37.96 38.9, 36.96 39.74 C35.97 40.57, 34.88 41.33, 33.75 41.99 C32.62 42.64, 31.42 43.2, 30.2 43.64 C28.97 44.09, 27.69 44.43, 26.41 44.66 C25.12 44.88, 23.8 45, 22.5 45 C21.2 45, 19.88 44.88, 18.59 44.66 C17.31 44.43, 16.03 44.09, 14.8 43.64 C13.58 43.2, 12.38 42.64, 11.25 41.99 C10.12 41.33, 9.03 40.57, 8.04 39.74 C7.04 38.9, 6.1 37.96, 5.26 36.96 C4.43 35.97, 3.67 34.88, 3.01 33.75 C2.36 32.62, 1.8 31.42, 1.36 30.2 C0.91 28.97, 0.57 27.69, 0.34 26.41 C0.12 25.12, 0 23.8, 0 22.5 C0 21.2, 0.12 19.88, 0.34 18.59 C0.57 17.31, 0.91 16.03, 1.36 14.8 C1.8 13.58, 2.36 12.38, 3.01 11.25 C3.67 10.12, 4.43 9.03, 5.26 8.04 C6.1 7.04, 7.04 6.1, 8.04 5.26 C9.03 4.43, 10.12 3.67, 11.25 3.01 C12.38 2.36, 13.58 1.8, 14.8 1.36 C16.03 0.91, 17.31 0.57, 18.59 0.34 C19.88 0.12, 21.2 0, 22.5 0 C23.8 0, 25.12 0.12, 26.41 0.34 C27.69 0.57, 28.97 0.91, 30.2 1.36 C31.42 1.8, 32.62 2.36, 33.75 3.01 C34.88 3.67, 35.97 4.43, 36.96 5.26 C37.96 6.1, 38.9 7.04, 39.74 8.04 C40.57 9.03, 41.33 10.12, 41.99 11.25 C42.64 12.38, 43.2 13.58, 43.64 14.8 C44.09 16.03, 44.43 17.31, 44.66 18.59 C44.88 19.88, 44.94 21.85, 45 22.5 C45.06 23.15, 45.06 21.85, 45 22.5" stroke="#1e1e1e" stroke-width="1" fill="none"></path></g><g stroke-linecap="round" transform="translate(1007.0011068199206 875.2799532583722) rotate(0 16.5 16.5)"><path d="M33 16.5 C33 17.46, 32.92 18.42, 32.75 19.37 C32.58 20.31, 32.33 21.25, 32 22.14 C31.68 23.04, 31.27 23.92, 30.79 24.75 C30.31 25.58, 29.75 26.37, 29.14 27.11 C28.53 27.84, 27.84 28.53, 27.11 29.14 C26.37 29.75, 25.58 30.31, 24.75 30.79 C23.92 31.27, 23.04 31.68, 22.14 32 C21.25 32.33, 20.31 32.58, 19.37 32.75 C18.42 32.92, 17.46 33, 16.5 33 C15.54 33, 14.58 32.92, 13.63 32.75 C12.69 32.58, 11.75 32.33, 10.86 32 C9.96 31.68, 9.08 31.27, 8.25 30.79 C7.42 30.31, 6.63 29.75, 5.89 29.14 C5.16 28.53, 4.47 27.84, 3.86 27.11 C3.25 26.37, 2.69 25.58, 2.21 24.75 C1.73 23.92, 1.32 23.04, 1 22.14 C0.67 21.25, 0.42 20.31, 0.25 19.37 C0.08 18.42, 0 17.46, 0 16.5 C0 15.54, 0.08 14.58, 0.25 13.63 C0.42 12.69, 0.67 11.75, 1 10.86 C1.32 9.96, 1.73 9.08, 2.21 8.25 C2.69 7.42, 3.25 6.63, 3.86 5.89 C4.47 5.16, 5.16 4.47, 5.89 3.86 C6.63 3.25, 7.42 2.69, 8.25 2.21 C9.08 1.73, 9.96 1.32, 10.86 1 C11.75 0.67, 12.69 0.42, 13.63 0.25 C14.58 0.08, 15.54 0, 16.5 0 C17.46 0, 18.42 0.08, 19.37 0.25 C20.31 0.42, 21.25 0.67, 22.14 1 C23.04 1.32, 23.92 1.73, 24.75 2.21 C25.58 2.69, 26.37 3.25, 27.11 3.86 C27.84 4.47, 28.53 5.16, 29.14 5.89 C29.75 6.63, 30.31 7.42, 30.79 8.25 C31.27 9.08, 31.68 9.96, 32 10.86 C32.33 11.75, 32.58 12.69, 32.75 13.63 C32.92 14.58, 32.96 16.02, 33 16.5 C33.04 16.98, 33.04 16.02, 33 16.5" stroke="none" stroke-width="0" fill="#1e1e1e"></path><path d="M33 16.5 C33 17.46, 32.92 18.42, 32.75 19.37 C32.58 20.31, 32.33 21.25, 32 22.14 C31.68 23.04, 31.27 23.92, 30.79 24.75 C30.31 25.58, 29.75 26.37, 29.14 27.11 C28.53 27.84, 27.84 28.53, 27.11 29.14 C26.37 29.75, 25.58 30.31, 24.75 30.79 C23.92 31.27, 23.04 31.68, 22.14 32 C21.25 32.33, 20.31 32.58, 19.37 32.75 C18.42 32.92, 17.46 33, 16.5 33 C15.54 33, 14.58 32.92, 13.63 32.75 C12.69 32.58, 11.75 32.33, 10.86 32 C9.96 31.68, 9.08 31.27, 8.25 30.79 C7.42 30.31, 6.63 29.75, 5.89 29.14 C5.16 28.53, 4.47 27.84, 3.86 27.11 C3.25 26.37, 2.69 25.58, 2.21 24.75 C1.73 23.92, 1.32 23.04, 1 22.14 C0.67 21.25, 0.42 20.31, 0.25 19.37 C0.08 18.42, 0 17.46, 0 16.5 C0 15.54, 0.08 14.58, 0.25 13.63 C0.42 12.69, 0.67 11.75, 1 10.86 C1.32 9.96, 1.73 9.08, 2.21 8.25 C2.69 7.42, 3.25 6.63, 3.86 5.89 C4.47 5.16, 5.16 4.47, 5.89 3.86 C6.63 3.25, 7.42 2.69, 8.25 2.21 C9.08 1.73, 9.96 1.32, 10.86 1 C11.75 0.67, 12.69 0.42, 13.63 0.25 C14.58 0.08, 15.54 0, 16.5 0 C17.46 0, 18.42 0.08, 19.37 0.25 C20.31 0.42, 21.25 0.67, 22.14 1 C23.04 1.32, 23.92 1.73, 24.75 2.21 C25.58 2.69, 26.37 3.25, 27.11 3.86 C27.84 4.47, 28.53 5.16, 29.14 5.89 C29.75 6.63, 30.31 7.42, 30.79 8.25 C31.27 9.08, 31.68 9.96, 32 10.86 C32.33 11.75, 32.58 12.69, 32.75 13.63 C32.92 14.58, 32.96 16.02, 33 16.5 C33.04 16.98, 33.04 16.02, 33 16.5" stroke="#1e1e1e" stroke-width="1" fill="none"></path></g><g stroke-linecap="round"><g transform="translate(361.15751539642827 838.829093205868) rotate(0 -5.684341886080802e-14 23.70156803746329)"><path d="M0 0 C0 10.01, 0 20.02, 0 47.4 M0 0 C0 13.2, 0 26.4, 0 47.4" stroke="#1e1e1e" stroke-width="1" fill="none"></path></g><g transform="translate(361.15751539642827 838.829093205868) rotate(0 -5.684341886080802e-14 23.70156803746329)"><path d="M-8.11 25.13 C-6.39 29.83, -4.68 34.54, 0 47.4 M-8.11 25.13 C-5.85 31.33, -3.59 37.54, 0 47.4" stroke="#1e1e1e" stroke-width="1" fill="none"></path></g><g transform="translate(361.15751539642827 838.829093205868) rotate(0 -5.684341886080802e-14 23.70156803746329)"><path d="M8.11 25.13 C6.39 29.83, 4.68 34.54, 0 47.4 M8.11 25.13 C5.85 31.33, 3.59 37.54, 0 47.4" stroke="#1e1e1e" stroke-width="1" fill="none"></path></g></g><mask></mask><g stroke-linecap="round" transform="translate(795.2767779817841 918.1868295354989) rotate(0 21.5 21.5)"><path d="M22 0 C28.68 7, 35.36 14, 43 22 M22 0 C29 7.34, 36 14.67, 43 22 M43 22 C38.55 26.45, 34.11 30.89, 22 43 M43 22 C36.21 28.79, 29.41 35.59, 22 43 M22 43 C17.49 38.69, 12.97 34.38, 0 22 M22 43 C15.63 36.92, 9.27 30.85, 0 22 M0 22 C7.37 14.63, 14.74 7.26, 22 0 M0 22 C8.33 13.67, 16.66 5.34, 22 0" stroke="#1e1e1e" stroke-width="1" fill="none"></path></g><g transform="translate(839.2796702810606 876.1464556478315) rotate(0 23.891666412353516 11.5)"><text x="23.891666412353516" y="0" font-family="Helvetica, Segoe UI Emoji" font-size="20px" fill="#1e1e1e" text-anchor="middle" style="white-space: pre;" direction="ltr" dominant-baseline="text-before-edge">Retry</text></g><g stroke-linecap="round"><g transform="translate(787.7251268905129 938.6782521722027) rotate(0 -142.17910163465245 0)"><path d="M0 0 C-109.82 0, -219.65 0, -284.36 0 M0 0 C-57.04 0, -114.08 0, -284.36 0" stroke="#1e1e1e" stroke-width="1" fill="none"></path></g><g transform="translate(787.7251268905129 938.6782521722027) rotate(0 -142.17910163465245 0)"><path d="M-256.17 -10.26 C-267.06 -6.3, -277.94 -2.33, -284.36 0 M-256.17 -10.26 C-261.82 -8.2, -267.48 -6.14, -284.36 0" stroke="#1e1e1e" stroke-width="1" fill="none"></path></g><g transform="translate(787.7251268905129 938.6782521722027) rotate(0 -142.17910163465245 0)"><path d="M-256.17 10.26 C-267.06 6.3, -277.94 2.33, -284.36 0 M-256.17 10.26 C-261.82 8.2, -267.48 6.14, -284.36 0" stroke="#1e1e1e" stroke-width="1" fill="none"></path></g></g><mask></mask><g stroke-linecap="round"><g transform="translate(816.7767779817841 869.0864141047573) rotate(0 0 21.18012462922252)"><path d="M0 0 C0 14.67, 0 29.34, 0 42.36 M0 0 C0 13.66, 0 27.32, 0 42.36" stroke="#1e1e1e" stroke-width="1" fill="none"></path></g><g transform="translate(816.7767779817841 869.0864141047573) rotate(0 0 21.18012462922252)"><path d="M-7.24 22.46 C-4.74 29.35, -2.23 36.24, 0 42.36 M-7.24 22.46 C-4.91 28.88, -2.57 35.29, 0 42.36" stroke="#1e1e1e" stroke-width="1" fill="none"></path></g><g transform="translate(816.7767779817841 869.0864141047573) rotate(0 0 21.18012462922252)"><path d="M7.24 22.46 C4.74 29.35, 2.23 36.24, 0 42.36 M7.24 22.46 C4.91 28.88, 2.57 35.29, 0 42.36" stroke="#1e1e1e" stroke-width="1" fill="none"></path></g></g><mask></mask><g stroke-linecap="round"><g transform="translate(847.0340988806734 938.6782521722027) rotate(0 31.770186943833778 -34.795919033722726)"><path d="M0 0 C14.2 0, 28.41 0, 63.54 0 M0 0 C13.76 0, 27.51 0, 63.54 0 M63.54 0 C63.54 -21.64, 63.54 -43.27, 63.54 -69.59 M63.54 0 C63.54 -26.79, 63.54 -53.58, 63.54 -69.59" stroke="#1e1e1e" stroke-width="1" fill="none"></path></g><g transform="translate(847.0340988806734 938.6782521722027) rotate(0 31.770186943833778 -34.795919033722726)"><path d="M73.8 -41.4 C71.51 -47.7, 69.21 -54, 63.54 -69.59 M73.8 -41.4 C71.58 -47.5, 69.36 -53.61, 63.54 -69.59" stroke="#1e1e1e" stroke-width="1" fill="none"></path></g><g transform="translate(847.0340988806734 938.6782521722027) rotate(0 31.770186943833778 -34.795919033722726)"><path d="M53.28 -41.4 C55.57 -47.7, 57.87 -54, 63.54 -69.59 M53.28 -41.4 C55.5 -47.5, 57.72 -53.61, 63.54 -69.59" stroke="#1e1e1e" stroke-width="1" fill="none"></path></g></g><mask></mask><g transform="translate(864.482034128906 944.4357784023365) rotate(0 41.13333511352539 11.5)"><text x="41.13333511352539" y="0" font-family="Helvetica, Segoe UI Emoji" font-size="20px" fill="#1e1e1e" text-anchor="middle" style="white-space: pre;" direction="ltr" dominant-baseline="text-before-edge">[rejected]</text></g><g transform="translate(607.5535770751187 944.4357784023365) rotate(0 39.474998474121094 11.5)"><text x="39.474998474121094" y="0" font-family="Helvetica, Segoe UI Emoji" font-size="20px" fill="#1e1e1e" text-anchor="middle" style="white-space: pre;" direction="ltr" dominant-baseline="text-before-edge">[granted]</text></g><g transform="translate(388.11292652661564 1002.2186260598702) rotate(0 33.349998474121094 11.5)"><text x="33.349998474121094" y="0" font-family="Helvetica, Segoe UI Emoji" font-size="20px" fill="#1e1e1e" text-anchor="middle" style="white-space: pre;" direction="ltr" dominant-baseline="text-before-edge">Takeoff</text></g><g transform="translate(490.7719952119487 1024.3737089730985) rotate(0 55.025001525878906 11.5)"><text x="55.025001525878906" y="0" font-family="Helvetica, Segoe UI Emoji" font-size="20px" fill="#1e1e1e" text-anchor="middle" style="white-space: pre;" direction="ltr" dominant-baseline="text-before-edge">[overloaded]</text></g><g transform="translate(166.75794845758094 1022.811707159015) rotate(0 47.24166488647461 11.5)"><text x="47.24166488647461" y="0" font-family="Helvetica, Segoe UI Emoji" font-size="20px" fill="#1e1e1e" text-anchor="middle" style="white-space: pre;" direction="ltr" dominant-baseline="text-before-edge">[succesful]</text></g><g stroke-linecap="round"><g transform="translate(363.17467012302086 995.158584516796) rotate(0 5.684341886080802e-14 16.641526494389154)"><path d="M0 0 C0 11.09, 0 22.18, 0 33.28 M0 0 C0 9.61, 0 19.21, 0 33.28" stroke="#1e1e1e" stroke-width="1" fill="none"></path></g><g transform="translate(363.17467012302086 995.158584516796) rotate(0 5.684341886080802e-14 16.641526494389154)"><path d="M-5.69 17.65 C-3.8 22.86, -1.9 28.06, 0 33.28 M-5.69 17.65 C-4.05 22.16, -2.41 26.67, 0 33.28" stroke="#1e1e1e" stroke-width="1" fill="none"></path></g><g transform="translate(363.17467012302086 995.158584516796) rotate(0 5.684341886080802e-14 16.641526494389154)"><path d="M5.69 17.65 C3.8 22.86, 1.9 28.06, 0 33.28 M5.69 17.65 C4.05 22.16, 2.41 26.67, 0 33.28" stroke="#1e1e1e" stroke-width="1" fill="none"></path></g></g><mask></mask><g stroke-linecap="round"><g transform="translate(388.5222876727945 1058.8360204212192) rotate(0 100.44590136217647 29.686440483558272)"><path d="M0 0 C47.39 0, 94.79 0, 200.89 0 M0 0 C64.01 0, 128.03 0, 200.89 0 M200.89 0 C200.89 18.66, 200.89 37.31, 200.89 59.37 M200.89 0 C200.89 22.98, 200.89 45.97, 200.89 59.37" stroke="#1e1e1e" stroke-width="1" fill="none"></path></g><g transform="translate(388.5222876727945 1058.8360204212192) rotate(0 100.44590136217647 29.686440483558272)"><path d="M190.74 31.48 C193.13 38.06, 195.53 44.64, 200.89 59.37 M190.74 31.48 C193.97 40.37, 197.21 49.26, 200.89 59.37" stroke="#1e1e1e" stroke-width="1" fill="none"></path></g><g transform="translate(388.5222876727945 1058.8360204212192) rotate(0 100.44590136217647 29.686440483558272)"><path d="M211.05 31.48 C208.65 38.06, 206.25 44.64, 200.89 59.37 M211.05 31.48 C207.81 40.37, 204.57 49.26, 200.89 59.37" stroke="#1e1e1e" stroke-width="1" fill="none"></path></g></g><mask></mask><g stroke-linecap="round"><g transform="translate(329.9627338422139 1056.3960390116117) rotate(0 -92.31262999681809 29.279776915290313)"><path d="M0 0 C-49.77 0, -99.53 0, -184.63 0 M0 0 C-68.07 0, -136.14 0, -184.63 0 M-184.63 0 C-184.63 21.35, -184.63 42.7, -184.63 58.56 M-184.63 0 C-184.63 15.99, -184.63 31.99, -184.63 58.56" stroke="#1e1e1e" stroke-width="1" fill="none"></path></g><g transform="translate(329.9627338422139 1056.3960390116117) rotate(0 -92.31262999681809 29.279776915290313)"><path d="M-194.64 31.05 C-191.94 38.46, -189.24 45.88, -184.63 58.56 M-194.64 31.05 C-190.95 41.19, -187.25 51.33, -184.63 58.56" stroke="#1e1e1e" stroke-width="1" fill="none"></path></g><g transform="translate(329.9627338422139 1056.3960390116117) rotate(0 -92.31262999681809 29.279776915290313)"><path d="M-174.61 31.05 C-177.31 38.46, -180.01 45.88, -184.63 58.56 M-174.61 31.05 C-178.3 41.19, -182 51.33, -184.63 58.56" stroke="#1e1e1e" stroke-width="1" fill="none"></path></g></g><mask></mask><g stroke-linecap="round" transform="translate(122.03651771171712 1260.558714590773) rotate(0 22.5 22.5)"><path d="M45 22.5 C45 23.8, 44.88 25.12, 44.66 26.41 C44.43 27.69, 44.09 28.97, 43.64 30.2 C43.2 31.42, 42.64 32.62, 41.99 33.75 C41.33 34.88, 40.57 35.97, 39.74 36.96 C38.9 37.96, 37.96 38.9, 36.96 39.74 C35.97 40.57, 34.88 41.33, 33.75 41.99 C32.62 42.64, 31.42 43.2, 30.2 43.64 C28.97 44.09, 27.69 44.43, 26.41 44.66 C25.12 44.88, 23.8 45, 22.5 45 C21.2 45, 19.88 44.88, 18.59 44.66 C17.31 44.43, 16.03 44.09, 14.8 43.64 C13.58 43.2, 12.38 42.64, 11.25 41.99 C10.12 41.33, 9.03 40.57, 8.04 39.74 C7.04 38.9, 6.1 37.96, 5.26 36.96 C4.43 35.97, 3.67 34.88, 3.01 33.75 C2.36 32.62, 1.8 31.42, 1.36 30.2 C0.91 28.97, 0.57 27.69, 0.34 26.41 C0.12 25.12, 0 23.8, 0 22.5 C0 21.2, 0.12 19.88, 0.34 18.59 C0.57 17.31, 0.91 16.03, 1.36 14.8 C1.8 13.58, 2.36 12.38, 3.01 11.25 C3.67 10.12, 4.43 9.03, 5.26 8.04 C6.1 7.04, 7.04 6.1, 8.04 5.26 C9.03 4.43, 10.12 3.67, 11.25 3.01 C12.38 2.36, 13.58 1.8, 14.8 1.36 C16.03 0.91, 17.31 0.57, 18.59 0.34 C19.88 0.12, 21.2 0, 22.5 0 C23.8 0, 25.12 0.12, 26.41 0.34 C27.69 0.57, 28.97 0.91, 30.2 1.36 C31.42 1.8, 32.62 2.36, 33.75 3.01 C34.88 3.67, 35.97 4.43, 36.96 5.26 C37.96 6.1, 38.9 7.04, 39.74 8.04 C40.57 9.03, 41.33 10.12, 41.99 11.25 C42.64 12.38, 43.2 13.58, 43.64 14.8 C44.09 16.03, 44.43 17.31, 44.66 18.59 C44.88 19.88, 44.94 21.85, 45 22.5 C45.06 23.15, 45.06 21.85, 45 22.5" stroke="#1e1e1e" stroke-width="1" fill="none"></path></g><g stroke-linecap="round" transform="translate(128.03651771171712 1266.558714590773) rotate(0 16.5 16.5)"><path d="M33 16.5 C33 17.46, 32.92 18.42, 32.75 19.37 C32.58 20.31, 32.33 21.25, 32 22.14 C31.68 23.04, 31.27 23.92, 30.79 24.75 C30.31 25.58, 29.75 26.37, 29.14 27.11 C28.53 27.84, 27.84 28.53, 27.11 29.14 C26.37 29.75, 25.58 30.31, 24.75 30.79 C23.92 31.27, 23.04 31.68, 22.14 32 C21.25 32.33, 20.31 32.58, 19.37 32.75 C18.42 32.92, 17.46 33, 16.5 33 C15.54 33, 14.58 32.92, 13.63 32.75 C12.69 32.58, 11.75 32.33, 10.86 32 C9.96 31.68, 9.08 31.27, 8.25 30.79 C7.42 30.31, 6.63 29.75, 5.89 29.14 C5.16 28.53, 4.47 27.84, 3.86 27.11 C3.25 26.37, 2.69 25.58, 2.21 24.75 C1.73 23.92, 1.32 23.04, 1 22.14 C0.67 21.25, 0.42 20.31, 0.25 19.37 C0.08 18.42, 0 17.46, 0 16.5 C0 15.54, 0.08 14.58, 0.25 13.63 C0.42 12.69, 0.67 11.75, 1 10.86 C1.32 9.96, 1.73 9.08, 2.21 8.25 C2.69 7.42, 3.25 6.63, 3.86 5.89 C4.47 5.16, 5.16 4.47, 5.89 3.86 C6.63 3.25, 7.42 2.69, 8.25 2.21 C9.08 1.73, 9.96 1.32, 10.86 1 C11.75 0.67, 12.69 0.42, 13.63 0.25 C14.58 0.08, 15.54 0, 16.5 0 C17.46 0, 18.42 0.08, 19.37 0.25 C20.31 0.42, 21.25 0.67, 22.14 1 C23.04 1.32, 23.92 1.73, 24.75 2.21 C25.58 2.69, 26.37 3.25, 27.11 3.86 C27.84 4.47, 28.53 5.16, 29.14 5.89 C29.75 6.63, 30.31 7.42, 30.79 8.25 C31.27 9.08, 31.68 9.96, 32 10.86 C32.33 11.75, 32.58 12.69, 32.75 13.63 C32.92 14.58, 32.96 16.02, 33 16.5 C33.04 16.98, 33.04 16.02, 33 16.5" stroke="none" stroke-width="0" fill="#1e1e1e"></path><path d="M33 16.5 C33 17.46, 32.92 18.42, 32.75 19.37 C32.58 20.31, 32.33 21.25, 32 22.14 C31.68 23.04, 31.27 23.92, 30.79 24.75 C30.31 25.58, 29.75 26.37, 29.14 27.11 C28.53 27.84, 27.84 28.53, 27.11 29.14 C26.37 29.75, 25.58 30.31, 24.75 30.79 C23.92 31.27, 23.04 31.68, 22.14 32 C21.25 32.33, 20.31 32.58, 19.37 32.75 C18.42 32.92, 17.46 33, 16.5 33 C15.54 33, 14.58 32.92, 13.63 32.75 C12.69 32.58, 11.75 32.33, 10.86 32 C9.96 31.68, 9.08 31.27, 8.25 30.79 C7.42 30.31, 6.63 29.75, 5.89 29.14 C5.16 28.53, 4.47 27.84, 3.86 27.11 C3.25 26.37, 2.69 25.58, 2.21 24.75 C1.73 23.92, 1.32 23.04, 1 22.14 C0.67 21.25, 0.42 20.31, 0.25 19.37 C0.08 18.42, 0 17.46, 0 16.5 C0 15.54, 0.08 14.58, 0.25 13.63 C0.42 12.69, 0.67 11.75, 1 10.86 C1.32 9.96, 1.73 9.08, 2.21 8.25 C2.69 7.42, 3.25 6.63, 3.86 5.89 C4.47 5.16, 5.16 4.47, 5.89 3.86 C6.63 3.25, 7.42 2.69, 8.25 2.21 C9.08 1.73, 9.96 1.32, 10.86 1 C11.75 0.67, 12.69 0.42, 13.63 0.25 C14.58 0.08, 15.54 0, 16.5 0 C17.46 0, 18.42 0.08, 19.37 0.25 C20.31 0.42, 21.25 0.67, 22.14 1 C23.04 1.32, 23.92 1.73, 24.75 2.21 C25.58 2.69, 26.37 3.25, 27.11 3.86 C27.84 4.47, 28.53 5.16, 29.14 5.89 C29.75 6.63, 30.31 7.42, 30.79 8.25 C31.27 9.08, 31.68 9.96, 32 10.86 C32.33 11.75, 32.58 12.69, 32.75 13.63 C32.92 14.58, 32.96 16.02, 33 16.5 C33.04 16.98, 33.04 16.02, 33 16.5" stroke="#1e1e1e" stroke-width="1" fill="none"></path></g><g stroke-linecap="round"><g transform="translate(144.53651771171712 1228.4231506409944) rotate(0 0 14.703575505846288)"><path d="M0 0 C0 6.11, 0 12.22, 0 29.41 M0 0 C0 6, 0 12.01, 0 29.41" stroke="#1e1e1e" stroke-width="1" fill="none"></path></g><g transform="translate(144.53651771171712 1228.4231506409944) rotate(0 0 14.703575505846288)"><path d="M-5.03 15.59 C-3.98 18.46, -2.94 21.33, 0 29.41 M-5.03 15.59 C-4 18.41, -2.98 21.23, 0 29.41" stroke="#1e1e1e" stroke-width="1" fill="none"></path></g><g transform="translate(144.53651771171712 1228.4231506409944) rotate(0 0 14.703575505846288)"><path d="M5.03 15.59 C3.98 18.46, 2.94 21.33, 0 29.41 M5.03 15.59 C4 18.41, 2.98 21.23, 0 29.41" stroke="#1e1e1e" stroke-width="1" fill="none"></path></g></g><mask></mask><g stroke-linecap="round" transform="translate(568.8946683579494 1260.7549044040236) rotate(0 22.5 22.5)"><path d="M45 22.5 C45 23.8, 44.88 25.12, 44.66 26.41 C44.43 27.69, 44.09 28.97, 43.64 30.2 C43.2 31.42, 42.64 32.62, 41.99 33.75 C41.33 34.88, 40.57 35.97, 39.74 36.96 C38.9 37.96, 37.96 38.9, 36.96 39.74 C35.97 40.57, 34.88 41.33, 33.75 41.99 C32.62 42.64, 31.42 43.2, 30.2 43.64 C28.97 44.09, 27.69 44.43, 26.41 44.66 C25.12 44.88, 23.8 45, 22.5 45 C21.2 45, 19.88 44.88, 18.59 44.66 C17.31 44.43, 16.03 44.09, 14.8 43.64 C13.58 43.2, 12.38 42.64, 11.25 41.99 C10.12 41.33, 9.03 40.57, 8.04 39.74 C7.04 38.9, 6.1 37.96, 5.26 36.96 C4.43 35.97, 3.67 34.88, 3.01 33.75 C2.36 32.62, 1.8 31.42, 1.36 30.2 C0.91 28.97, 0.57 27.69, 0.34 26.41 C0.12 25.12, 0 23.8, 0 22.5 C0 21.2, 0.12 19.88, 0.34 18.59 C0.57 17.31, 0.91 16.03, 1.36 14.8 C1.8 13.58, 2.36 12.38, 3.01 11.25 C3.67 10.12, 4.43 9.03, 5.26 8.04 C6.1 7.04, 7.04 6.1, 8.04 5.26 C9.03 4.43, 10.12 3.67, 11.25 3.01 C12.38 2.36, 13.58 1.8, 14.8 1.36 C16.03 0.91, 17.31 0.57, 18.59 0.34 C19.88 0.12, 21.2 0, 22.5 0 C23.8 0, 25.12 0.12, 26.41 0.34 C27.69 0.57, 28.97 0.91, 30.2 1.36 C31.42 1.8, 32.62 2.36, 33.75 3.01 C34.88 3.67, 35.97 4.43, 36.96 5.26 C37.96 6.1, 38.9 7.04, 39.74 8.04 C40.57 9.03, 41.33 10.12, 41.99 11.25 C42.64 12.38, 43.2 13.58, 43.64 14.8 C44.09 16.03, 44.43 17.31, 44.66 18.59 C44.88 19.88, 44.94 21.85, 45 22.5 C45.06 23.15, 45.06 21.85, 45 22.5" stroke="#1e1e1e" stroke-width="1" fill="none"></path></g><g stroke-linecap="round" transform="translate(574.8946683579494 1266.7549044040236) rotate(0 16.5 16.5)"><path d="M33 16.5 C33 17.46, 32.92 18.42, 32.75 19.37 C32.58 20.31, 32.33 21.25, 32 22.14 C31.68 23.04, 31.27 23.92, 30.79 24.75 C30.31 25.58, 29.75 26.37, 29.14 27.11 C28.53 27.84, 27.84 28.53, 27.11 29.14 C26.37 29.75, 25.58 30.31, 24.75 30.79 C23.92 31.27, 23.04 31.68, 22.14 32 C21.25 32.33, 20.31 32.58, 19.37 32.75 C18.42 32.92, 17.46 33, 16.5 33 C15.54 33, 14.58 32.92, 13.63 32.75 C12.69 32.58, 11.75 32.33, 10.86 32 C9.96 31.68, 9.08 31.27, 8.25 30.79 C7.42 30.31, 6.63 29.75, 5.89 29.14 C5.16 28.53, 4.47 27.84, 3.86 27.11 C3.25 26.37, 2.69 25.58, 2.21 24.75 C1.73 23.92, 1.32 23.04, 1 22.14 C0.67 21.25, 0.42 20.31, 0.25 19.37 C0.08 18.42, 0 17.46, 0 16.5 C0 15.54, 0.08 14.58, 0.25 13.63 C0.42 12.69, 0.67 11.75, 1 10.86 C1.32 9.96, 1.73 9.08, 2.21 8.25 C2.69 7.42, 3.25 6.63, 3.86 5.89 C4.47 5.16, 5.16 4.47, 5.89 3.86 C6.63 3.25, 7.42 2.69, 8.25 2.21 C9.08 1.73, 9.96 1.32, 10.86 1 C11.75 0.67, 12.69 0.42, 13.63 0.25 C14.58 0.08, 15.54 0, 16.5 0 C17.46 0, 18.42 0.08, 19.37 0.25 C20.31 0.42, 21.25 0.67, 22.14 1 C23.04 1.32, 23.92 1.73, 24.75 2.21 C25.58 2.69, 26.37 3.25, 27.11 3.86 C27.84 4.47, 28.53 5.16, 29.14 5.89 C29.75 6.63, 30.31 7.42, 30.79 8.25 C31.27 9.08, 31.68 9.96, 32 10.86 C32.33 11.75, 32.58 12.69, 32.75 13.63 C32.92 14.58, 32.96 16.02, 33 16.5 C33.04 16.98, 33.04 16.02, 33 16.5" stroke="none" stroke-width="0" fill="#1e1e1e"></path><path d="M33 16.5 C33 17.46, 32.92 18.42, 32.75 19.37 C32.58 20.31, 32.33 21.25, 32 22.14 C31.68 23.04, 31.27 23.92, 30.79 24.75 C30.31 25.58, 29.75 26.37, 29.14 27.11 C28.53 27.84, 27.84 28.53, 27.11 29.14 C26.37 29.75, 25.58 30.31, 24.75 30.79 C23.92 31.27, 23.04 31.68, 22.14 32 C21.25 32.33, 20.31 32.58, 19.37 32.75 C18.42 32.92, 17.46 33, 16.5 33 C15.54 33, 14.58 32.92, 13.63 32.75 C12.69 32.58, 11.75 32.33, 10.86 32 C9.96 31.68, 9.08 31.27, 8.25 30.79 C7.42 30.31, 6.63 29.75, 5.89 29.14 C5.16 28.53, 4.47 27.84, 3.86 27.11 C3.25 26.37, 2.69 25.58, 2.21 24.75 C1.73 23.92, 1.32 23.04, 1 22.14 C0.67 21.25, 0.42 20.31, 0.25 19.37 C0.08 18.42, 0 17.46, 0 16.5 C0 15.54, 0.08 14.58, 0.25 13.63 C0.42 12.69, 0.67 11.75, 1 10.86 C1.32 9.96, 1.73 9.08, 2.21 8.25 C2.69 7.42, 3.25 6.63, 3.86 5.89 C4.47 5.16, 5.16 4.47, 5.89 3.86 C6.63 3.25, 7.42 2.69, 8.25 2.21 C9.08 1.73, 9.96 1.32, 10.86 1 C11.75 0.67, 12.69 0.42, 13.63 0.25 C14.58 0.08, 15.54 0, 16.5 0 C17.46 0, 18.42 0.08, 19.37 0.25 C20.31 0.42, 21.25 0.67, 22.14 1 C23.04 1.32, 23.92 1.73, 24.75 2.21 C25.58 2.69, 26.37 3.25, 27.11 3.86 C27.84 4.47, 28.53 5.16, 29.14 5.89 C29.75 6.63, 30.31 7.42, 30.79 8.25 C31.27 9.08, 31.68 9.96, 32 10.86 C32.33 11.75, 32.58 12.69, 32.75 13.63 C32.92 14.58, 32.96 16.02, 33 16.5 C33.04 16.98, 33.04 16.02, 33 16.5" stroke="#1e1e1e" stroke-width="1" fill="none"></path></g><g stroke-linecap="round"><g transform="translate(591.3946683579494 1228.6193404542453) rotate(0 0 14.703575505846288)"><path d="M0 0 C0 8.66, 0 17.32, 0 29.41 M0 0 C0 6.67, 0 13.35, 0 29.41" stroke="#1e1e1e" stroke-width="1" fill="none"></path></g><g transform="translate(591.3946683579494 1228.6193404542453) rotate(0 0 14.703575505846288)"><path d="M-5.03 15.59 C-3.55 19.66, -2.07 23.73, 0 29.41 M-5.03 15.59 C-3.89 18.73, -2.75 21.86, 0 29.41" stroke="#1e1e1e" stroke-width="1" fill="none"></path></g><g transform="translate(591.3946683579494 1228.6193404542453) rotate(0 0 14.703575505846288)"><path d="M5.03 15.59 C3.55 19.66, 2.07 23.73, 0 29.41 M5.03 15.59 C3.89 18.73, 2.75 21.86, 0 29.41" stroke="#1e1e1e" stroke-width="1" fill="none"></path></g></g><mask></mask></svg>