<?xml version="1.0" encoding="UTF-8" standalone="no"?>
<svg
   version="1.1"
   viewBox="0 0 1087.613 1302.1414"
   width="3262.8391"
   height="3906.4241"
   id="svg460"
   sodipodi:docname="password_check_flow.svg"
   inkscape:version="1.2.2 (732a01da63, 2022-12-09, custom)"
   xmlns:inkscape="http://www.inkscape.org/namespaces/inkscape"
   xmlns:sodipodi="http://sodipodi.sourceforge.net/DTD/sodipodi-0.dtd"
   xmlns="http://www.w3.org/2000/svg"
   xmlns:svg="http://www.w3.org/2000/svg">
  <sodipodi:namedview
     id="namedview462"
     pagecolor="#505050"
     bordercolor="#eeeeee"
     borderopacity="1"
     inkscape:showpageshadow="0"
     inkscape:pageopacity="0"
     inkscape:pagecheckerboard="0"
     inkscape:deskcolor="#505050"
     showgrid="false"
     inkscape:zoom="0.15385958"
     inkscape:cx="201.48242"
     inkscape:cy="2076.5688"
     inkscape:window-width="1920"
     inkscape:window-height="1016"
     inkscape:window-x="0"
     inkscape:window-y="27"
     inkscape:window-maximized="1"
     inkscape:current-layer="svg460" />
  <!-- svg-source:excalidraw -->
  <defs
     id="defs20">
    <style
       class="style-fonts"
       id="style18">
      @font-face {
        font-family: &quot;Virgil&quot;;
        src: url(&quot;https://excalidraw.com/Virgil.woff2&quot;);
      }
      @font-face {
        font-family: &quot;Cascadia&quot;;
        src: url(&quot;https://excalidraw.com/Cascadia.woff2&quot;);
      }
    </style>
  </defs>
  <rect
     x="0"
     y="0"
     width="1087.613"
     height="1302.1414"
     fill="#ffffff"
     id="rect22"
     style="stroke-width:1.19889" />
  <mask
     id="mask166" />
  <mask
     id="mask182" />
  <mask
     id="mask198" />
  <mask
     id="mask214" />
  <mask
     id="mask230" />
  <mask
     id="mask246" />
  <mask
     id="mask262" />
  <mask
     id="mask278" />
  <mask
     id="mask294" />
  <mask
     id="mask310" />
  <mask
     id="mask326" />
  <mask
     id="mask342" />
  <mask
     id="mask358" />
  <mask
     id="mask394" />
  <mask
     id="mask410" />
  <mask
     id="mask426" />
  <mask
     id="mask442" />
  <g
     id="g945"
     transform="translate(165.44395,-2.1289062e-5)">
    <g
       transform="translate(234.45429,72.627107)"
       id="g26">
      <text
         x="0"
         y="0"
         font-family="Cascadia, 'Segoe UI Emoji'"
         font-size="16px"
         fill="#1e1e1e"
         text-anchor="start"
         style="white-space:pre"
         direction="ltr"
         dominant-baseline="text-before-edge"
         id="text24">[strlen(password) != 29]</text>
    </g>
    <g
       transform="translate(222.55521,236.85804)"
       id="g32">
      <text
         x="0"
         y="0"
         font-family="Cascadia, 'Segoe UI Emoji'"
         font-size="16px"
         fill="#1e1e1e"
         text-anchor="start"
         style="white-space:pre"
         direction="ltr"
         dominant-baseline="text-before-edge"
         id="text28">[no '-' at pos [5,11,17,23]</text>
      <text
         x="0"
         y="19.200001"
         font-family="Cascadia, 'Segoe UI Emoji'"
         font-size="16px"
         fill="#1e1e1e"
         text-anchor="start"
         style="white-space:pre"
         direction="ltr"
         dominant-baseline="text-before-edge"
         id="text30">  OR invalid character(s)]</text>
    </g>
    <g
       transform="translate(199.68129,453.5882)"
       id="g36">
      <text
         x="0"
         y="0"
         font-family="Cascadia, 'Segoe UI Emoji'"
         font-size="16px"
         fill="#1e1e1e"
         text-anchor="start"
         style="white-space:pre"
         direction="ltr"
         dominant-baseline="text-before-edge"
         id="text34">[4 &lt; num(blocks of 4 in username)]</text>
    </g>
    <g
       transform="translate(190.21554,1080.2563)"
       id="g40">
      <text
         x="0"
         y="0"
         font-family="Cascadia, 'Segoe UI Emoji'"
         font-size="16px"
         fill="#1e1e1e"
         text-anchor="start"
         style="white-space:pre"
         direction="ltr"
         dominant-baseline="text-before-edge"
         id="text38">[false for any combination of indeices]</text>
    </g>
    <g
       stroke-linecap="round"
       transform="translate(119.80357,10)"
       id="g46">
      <path
         d="m 40.39,19.5 c 0,1.13 -0.1,2.27 -0.3,3.39 -0.21,1.11 -0.52,2.22 -0.92,3.28 -0.39,1.06 -0.9,2.1 -1.48,3.08 -0.59,0.98 -1.27,1.92 -2.02,2.78 -0.75,0.87 -1.6,1.68 -2.49,2.41 -0.9,0.72 -1.87,1.38 -2.89,1.95 -1.01,0.56 -2.09,1.05 -3.19,1.43 -1.09,0.39 -2.25,0.69 -3.4,0.88 -1.15,0.2 -2.33,0.3 -3.5,0.3 -1.17,0 -2.36,-0.1 -3.51,-0.3 -1.15,-0.19 -2.3,-0.49 -3.4,-0.88 C 12.19,37.44 11.11,36.95 10.1,36.39 9.09,35.82 8.11,35.16 7.21,34.44 6.32,33.71 5.48,32.9 4.73,32.03 3.97,31.17 3.29,30.23 2.71,29.25 2.12,28.27 1.62,27.23 1.22,26.17 0.82,25.11 0.51,24 0.31,22.89 0.1,21.77 0,20.63 0,19.5 0,18.37 0.1,17.23 0.31,16.11 0.51,15 0.82,13.89 1.22,12.83 1.62,11.77 2.12,10.73 2.71,9.75 3.29,8.77 3.97,7.83 4.73,6.97 5.48,6.1 6.32,5.29 7.21,4.56 8.11,3.84 9.09,3.18 10.1,2.61 11.11,2.05 12.19,1.56 13.29,1.18 14.39,0.79 15.54,0.49 16.69,0.3 17.84,0.1 19.03,0 20.2,0 c 1.17,0 2.35,0.1 3.5,0.3 1.15,0.19 2.31,0.49 3.4,0.88 1.1,0.38 2.18,0.87 3.19,1.43 1.02,0.57 1.99,1.23 2.89,1.95 0.89,0.73 1.74,1.54 2.49,2.41 0.75,0.86 1.43,1.8 2.02,2.78 0.58,0.98 1.09,2.02 1.48,3.08 0.4,1.06 0.71,2.17 0.92,3.28 0.2,1.12 0.25,2.83 0.3,3.39 0.05,0.56 0.05,-0.56 0,0"
         stroke="none"
         stroke-width="0"
         fill="#1e1e1e"
         id="path42" />
      <path
         d="m 40.39,19.5 c 0,1.13 -0.1,2.27 -0.3,3.39 -0.21,1.11 -0.52,2.22 -0.92,3.28 -0.39,1.06 -0.9,2.1 -1.48,3.08 -0.59,0.98 -1.27,1.92 -2.02,2.78 -0.75,0.87 -1.6,1.68 -2.49,2.41 -0.9,0.72 -1.87,1.38 -2.89,1.95 -1.01,0.56 -2.09,1.05 -3.19,1.43 -1.09,0.39 -2.25,0.69 -3.4,0.88 -1.15,0.2 -2.33,0.3 -3.5,0.3 -1.17,0 -2.36,-0.1 -3.51,-0.3 -1.15,-0.19 -2.3,-0.49 -3.4,-0.88 C 12.19,37.44 11.11,36.95 10.1,36.39 9.09,35.82 8.11,35.16 7.21,34.44 6.32,33.71 5.48,32.9 4.73,32.03 3.97,31.17 3.29,30.23 2.71,29.25 2.12,28.27 1.62,27.23 1.22,26.17 0.82,25.11 0.51,24 0.31,22.89 0.1,21.77 0,20.63 0,19.5 0,18.37 0.1,17.23 0.31,16.11 0.51,15 0.82,13.89 1.22,12.83 1.62,11.77 2.12,10.73 2.71,9.75 3.29,8.77 3.97,7.83 4.73,6.97 5.48,6.1 6.32,5.29 7.21,4.56 8.11,3.84 9.09,3.18 10.1,2.61 11.11,2.05 12.19,1.56 13.29,1.18 14.39,0.79 15.54,0.49 16.69,0.3 17.84,0.1 19.03,0 20.2,0 c 1.17,0 2.35,0.1 3.5,0.3 1.15,0.19 2.31,0.49 3.4,0.88 1.1,0.38 2.18,0.87 3.19,1.43 1.02,0.57 1.99,1.23 2.89,1.95 0.89,0.73 1.74,1.54 2.49,2.41 0.75,0.86 1.43,1.8 2.02,2.78 0.58,0.98 1.09,2.02 1.48,3.08 0.4,1.06 0.71,2.17 0.92,3.28 0.2,1.12 0.25,2.83 0.3,3.39 0.05,0.56 0.05,-0.56 0,0"
         stroke="#1e1e1e"
         stroke-width="2"
         fill="none"
         id="path44" />
    </g>
    <g
       stroke-linecap="round"
       transform="translate(119.5,79.85703)"
       id="g50">
      <path
         d="m 21,0 c 7.89,8.28 15.78,16.56 20,21 M 21,0 c 6.05,6.35 12.1,12.7 20,21 m 0,0 C 35.94,26.06 30.89,31.11 21,41 M 41,21 C 35.33,26.67 29.66,32.34 21,41 m 0,0 C 14.51,34.82 8.01,28.63 0,21 M 21,41 C 16,36.24 11,31.47 0,21 m 0,0 C 7.71,13.29 15.41,5.59 21,0 M 0,21 C 7.62,13.38 15.24,5.76 21,0"
         stroke="#1e1e1e"
         stroke-width="2"
         fill="none"
         id="path48" />
    </g>
    <g
       stroke-linecap="round"
       transform="translate(31,151.71406)"
       id="g54">
      <path
         d="m 19.75,0 m 0,0 c 54.67,0 109.34,0 178.5,0 M 19.75,0 c 68.58,0 137.17,0 178.5,0 m 0,0 C 211.42,0 218,6.58 218,19.75 M 198.25,0 C 211.42,0 218,6.58 218,19.75 m 0,0 c 0,11.8 0,23.61 0,39.5 m 0,-39.5 c 0,12.8 0,25.6 0,39.5 m 0,0 C 218,72.42 211.42,79 198.25,79 M 218,59.25 C 218,72.42 211.42,79 198.25,79 m 0,0 c -59.36,0 -118.72,0 -178.5,0 m 178.5,0 C 156,79 113.74,79 19.75,79 m 0,0 C 6.58,79 0,72.42 0,59.25 M 19.75,79 C 6.58,79 0,72.42 0,59.25 m 0,0 C 0,49.78 0,40.32 0,19.75 m 0,39.5 C 0,46.28 0,33.3 0,19.75 m 0,0 C 0,6.58 6.58,0 19.75,0 M 0,19.75 C 0,6.58 6.58,0 19.75,0"
         stroke="#1e1e1e"
         stroke-width="2"
         fill="none"
         id="path52" />
    </g>
    <g
       transform="translate(36.64167,168.21406)"
       id="g60">
      <text
         x="103.35833"
         y="0"
         font-family="Helvetica, 'Segoe UI Emoji'"
         font-size="20px"
         fill="#1e1e1e"
         text-anchor="middle"
         style="white-space:pre"
         direction="ltr"
         dominant-baseline="text-before-edge"
         id="text56">Valid character indices </text>
      <text
         x="103.35833"
         y="23"
         font-family="Helvetica, 'Segoe UI Emoji'"
         font-size="20px"
         fill="#1e1e1e"
         text-anchor="middle"
         style="white-space:pre"
         direction="ltr"
         dominant-baseline="text-before-edge"
         id="text58">in password_list</text>
    </g>
    <g
       stroke-linecap="round"
       transform="translate(119.5,261.57109)"
       id="g64">
      <path
         d="m 21,0 c 5.24,5.5 10.48,11 20,21 M 21,0 c 5.13,5.38 10.25,10.76 20,21 m 0,0 C 33.8,28.2 26.59,35.41 21,41 M 41,21 C 34.85,27.15 28.7,33.3 21,41 m 0,0 C 16.71,36.91 12.41,32.82 0,21 M 21,41 C 14.47,34.78 7.94,28.56 0,21 m 0,0 C 4.62,16.38 9.23,11.77 21,0 M 0,21 C 6.11,14.89 12.22,8.78 21,0"
         stroke="#1e1e1e"
         stroke-width="2"
         fill="none"
         id="path62" />
    </g>
    <g
       stroke-linecap="round"
       transform="translate(15,333.42812)"
       id="g68">
      <path
         d="m 24,0 m 0,0 c 46.85,0 93.71,0 202,0 M 24,0 c 64.72,0 129.43,0 202,0 m 0,0 c 16,0 24,8 24,24 M 226,0 c 16,0 24,8 24,24 m 0,0 c 0,18.96 0,37.92 0,48 m 0,-48 c 0,10.95 0,21.89 0,48 m 0,0 c 0,16 -8,24 -24,24 m 24,-24 c 0,16 -8,24 -24,24 m 0,0 c -54.37,0 -108.73,0 -202,0 m 202,0 C 156.85,96 87.71,96 24,96 m 0,0 C 8,96 0,88 0,72 M 24,96 C 8,96 0,88 0,72 m 0,0 C 0,55.23 0,38.46 0,24 M 0,72 C 0,57.58 0,43.17 0,24 m 0,0 C 0,8 8,0 24,0 M 0,24 C 0,8 8,0 24,0"
         stroke="#1e1e1e"
         stroke-width="2"
         fill="none"
         id="path66" />
    </g>
    <g
       transform="translate(39.416664,358.42812)"
       id="g74">
      <text
         x="100.58334"
         y="0"
         font-family="Helvetica, 'Segoe UI Emoji'"
         font-size="20px"
         fill="#1e1e1e"
         text-anchor="middle"
         style="white-space:pre"
         direction="ltr"
         dominant-baseline="text-before-edge"
         id="text70">Set USERGEN_BASE</text>
      <text
         x="100.58334"
         y="23"
         font-family="Helvetica, 'Segoe UI Emoji'"
         font-size="20px"
         fill="#1e1e1e"
         text-anchor="middle"
         style="white-space:pre"
         direction="ltr"
         dominant-baseline="text-before-edge"
         id="text72">Prepare username_list</text>
    </g>
    <g
       stroke-linecap="round"
       transform="translate(119.5,460.28515)"
       id="g78">
      <path
         d="m 21,0 c 7.12,7.48 14.25,14.96 20,21 M 21,0 c 6.51,6.83 13.01,13.66 20,21 m 0,0 C 34.81,27.19 28.62,33.38 21,41 M 41,21 c -4.54,4.54 -9.07,9.07 -20,20 m 0,0 C 16.76,36.96 12.52,32.92 0,21 M 21,41 C 13.68,34.02 6.35,27.05 0,21 m 0,0 C 6.25,14.75 12.51,8.49 21,0 M 0,21 C 7.39,13.61 14.78,6.22 21,0"
         stroke="#1e1e1e"
         stroke-width="2"
         fill="none"
         id="path76" />
    </g>
    <g
       stroke-linecap="round"
       transform="translate(28,532.14218)"
       id="g82">
      <path
         d="m 19.75,0 m 0,0 C 81.98,0 144.2,0 204.25,0 M 19.75,0 c 53.67,0 107.35,0 184.5,0 m 0,0 C 217.42,0 224,6.58 224,19.75 M 204.25,0 C 217.42,0 224,6.58 224,19.75 m 0,0 c 0,10.81 0,21.62 0,39.5 m 0,-39.5 c 0,15.28 0,30.55 0,39.5 m 0,0 C 224,72.42 217.42,79 204.25,79 M 224,59.25 C 224,72.42 217.42,79 204.25,79 m 0,0 c -71.4,0 -142.79,0 -184.5,0 m 184.5,0 c -50.84,0 -101.67,0 -184.5,0 m 0,0 C 6.58,79 0,72.42 0,59.25 M 19.75,79 C 6.58,79 0,72.42 0,59.25 m 0,0 C 0,49.13 0,39.01 0,19.75 m 0,39.5 C 0,46.93 0,34.62 0,19.75 m 0,0 C 0,6.58 6.58,0 19.75,0 M 0,19.75 C 0,6.58 6.58,0 19.75,0"
         stroke="#1e1e1e"
         stroke-width="2"
         fill="none"
         id="path80" />
    </g>
    <g
       transform="translate(45.541664,548.64218)"
       id="g88">
      <text
         x="94.458336"
         y="0"
         font-family="Helvetica, 'Segoe UI Emoji'"
         font-size="20px"
         fill="#1e1e1e"
         text-anchor="middle"
         style="white-space:pre"
         direction="ltr"
         dominant-baseline="text-before-edge"
         id="text84">Finish username_list </text>
      <text
         x="94.458336"
         y="23"
         font-family="Helvetica, 'Segoe UI Emoji'"
         font-size="20px"
         fill="#1e1e1e"
         text-anchor="middle"
         style="white-space:pre"
         direction="ltr"
         dominant-baseline="text-before-edge"
         id="text86">generation</text>
    </g>
    <g
       stroke-linecap="round"
       transform="translate(20,641.99921)"
       id="g92">
      <path
         d="m 19.75,0 m 0,0 c 62.49,0 124.98,0 200.5,0 M 19.75,0 c 74.58,0 149.16,0 200.5,0 m 0,0 C 233.42,0 240,6.58 240,19.75 M 220.25,0 C 233.42,0 240,6.58 240,19.75 m 0,0 c 0,10.28 0,20.56 0,39.5 m 0,-39.5 c 0,8.61 0,17.21 0,39.5 m 0,0 C 240,72.42 233.42,79 220.25,79 M 240,59.25 C 240,72.42 233.42,79 220.25,79 m 0,0 c -59.74,0 -119.48,0 -200.5,0 m 200.5,0 c -40.4,0 -80.8,0 -200.5,0 m 0,0 C 6.58,79 0,72.42 0,59.25 M 19.75,79 C 6.58,79 0,72.42 0,59.25 m 0,0 C 0,46.29 0,33.32 0,19.75 m 0,39.5 C 0,46.59 0,33.94 0,19.75 m 0,0 C 0,6.58 6.58,0 19.75,0 M 0,19.75 C 0,6.58 6.58,0 19.75,0"
         stroke="#1e1e1e"
         stroke-width="2"
         fill="none"
         id="path90" />
    </g>
    <g
       transform="translate(41.650002,658.49921)"
       id="g98">
      <text
         x="98.349998"
         y="0"
         font-family="Helvetica, 'Segoe UI Emoji'"
         font-size="20px"
         fill="#1e1e1e"
         text-anchor="middle"
         style="white-space:pre"
         direction="ltr"
         dominant-baseline="text-before-edge"
         id="text94">Remap password_list </text>
      <text
         x="98.349998"
         y="23"
         font-family="Helvetica, 'Segoe UI Emoji'"
         font-size="20px"
         fill="#1e1e1e"
         text-anchor="middle"
         style="white-space:pre"
         direction="ltr"
         dominant-baseline="text-before-edge"
         id="text96">with SHUFFLE_MAP</text>
    </g>
    <g
       stroke-linecap="round"
       transform="translate(20,751.85624)"
       id="g102">
      <path
         d="m 19.75,0 m 0,0 C 68,0 116.25,0 220.25,0 M 19.75,0 c 54.9,0 109.79,0 200.5,0 m 0,0 C 233.42,0 240,6.58 240,19.75 M 220.25,0 C 233.42,0 240,6.58 240,19.75 m 0,0 c 0,10.82 0,21.64 0,39.5 m 0,-39.5 c 0,11.43 0,22.85 0,39.5 m 0,0 C 240,72.42 233.42,79 220.25,79 M 240,59.25 C 240,72.42 233.42,79 220.25,79 m 0,0 c -52.65,0 -105.31,0 -200.5,0 m 200.5,0 C 153.23,79 86.2,79 19.75,79 m 0,0 C 6.58,79 0,72.42 0,59.25 M 19.75,79 C 6.58,79 0,72.42 0,59.25 m 0,0 C 0,50.17 0,41.1 0,19.75 m 0,39.5 C 0,48.67 0,38.09 0,19.75 m 0,0 C 0,6.58 6.58,0 19.75,0 M 0,19.75 C 0,6.58 6.58,0 19.75,0"
         stroke="#1e1e1e"
         stroke-width="2"
         fill="none"
         id="path100" />
    </g>
    <g
       transform="translate(31.650002,768.35624)"
       id="g108">
      <text
         x="108.35"
         y="0"
         font-family="Helvetica, 'Segoe UI Emoji'"
         font-size="20px"
         fill="#1e1e1e"
         text-anchor="middle"
         style="white-space:pre"
         direction="ltr"
         dominant-baseline="text-before-edge"
         id="text104">XOR password_list with </text>
      <text
         x="108.35"
         y="23"
         font-family="Helvetica, 'Segoe UI Emoji'"
         font-size="20px"
         fill="#1e1e1e"
         text-anchor="middle"
         style="white-space:pre"
         direction="ltr"
         dominant-baseline="text-before-edge"
         id="text106">XOR_MAP </text>
    </g>
    <g
       stroke-linecap="round"
       transform="translate(10,861.71327)"
       id="g112">
      <path
         d="m 19.75,0 m 0,0 c 73.51,0 147.02,0 220.5,0 M 19.75,0 c 65.45,0 130.91,0 220.5,0 m 0,0 C 253.42,0 260,6.58 260,19.75 M 240.25,0 C 253.42,0 260,6.58 260,19.75 m 0,0 c 0,10.36 0,20.73 0,39.5 m 0,-39.5 c 0,8.55 0,17.1 0,39.5 m 0,0 C 260,72.42 253.42,79 240.25,79 M 260,59.25 C 260,72.42 253.42,79 240.25,79 m 0,0 c -68.45,0 -136.9,0 -220.5,0 m 220.5,0 C 169.7,79 99.14,79 19.75,79 m 0,0 C 6.58,79 0,72.42 0,59.25 M 19.75,79 C 6.58,79 0,72.42 0,59.25 m 0,0 C 0,46.57 0,33.89 0,19.75 m 0,39.5 C 0,46.57 0,33.89 0,19.75 m 0,0 C 0,6.58 6.58,0 19.75,0 M 0,19.75 C 0,6.58 6.58,0 19.75,0"
         stroke="#1e1e1e"
         stroke-width="2"
         fill="none"
         id="path110" />
    </g>
    <g
       transform="translate(26.625,878.21327)"
       id="g118">
      <text
         x="113.375"
         y="0"
         font-family="Helvetica, 'Segoe UI Emoji'"
         font-size="20px"
         fill="#1e1e1e"
         text-anchor="middle"
         style="white-space:pre"
         direction="ltr"
         dominant-baseline="text-before-edge"
         id="text114">Rotate blocks of five</text>
      <text
         x="113.375"
         y="23"
         font-family="Helvetica, 'Segoe UI Emoji'"
         font-size="20px"
         fill="#1e1e1e"
         text-anchor="middle"
         style="white-space:pre"
         direction="ltr"
         dominant-baseline="text-before-edge"
         id="text116">depending on block index</text>
    </g>
    <g
       stroke-linecap="round"
       transform="translate(123.80357,1257.0035)"
       id="g124">
      <path
         d="m 32.39,15.64 c 0,0.9 -0.08,1.82 -0.24,2.71 -0.17,0.89 -0.41,1.79 -0.73,2.64 -0.32,0.85 -0.73,1.68 -1.2,2.47 -0.47,0.78 -1.01,1.54 -1.62,2.23 -0.6,0.69 -1.27,1.35 -1.99,1.93 -0.72,0.58 -1.5,1.11 -2.32,1.56 -0.81,0.45 -1.67,0.84 -2.55,1.15 -0.89,0.31 -1.81,0.55 -2.73,0.71 -0.92,0.16 -1.88,0.24 -2.81,0.24 -0.94,0 -1.89,-0.08 -2.82,-0.24 -0.92,-0.16 -1.84,-0.4 -2.72,-0.71 C 9.78,30.02 8.91,29.63 8.1,29.18 7.29,28.73 6.5,28.2 5.79,27.62 5.07,27.04 4.39,26.38 3.79,25.69 3.19,25 2.64,24.24 2.17,23.46 1.7,22.67 1.3,21.84 0.98,20.99 0.66,20.14 0.41,19.24 0.25,18.35 0.08,17.46 0,16.54 0,15.64 0,14.73 0.08,13.81 0.25,12.92 0.41,12.03 0.66,11.14 0.98,10.29 1.3,9.44 1.7,8.6 2.17,7.82 2.64,7.04 3.19,6.28 3.79,5.59 4.39,4.89 5.07,4.24 5.79,3.66 6.5,3.08 7.29,2.55 8.1,2.1 8.91,1.64 9.78,1.25 10.66,0.94 11.54,0.63 12.46,0.39 13.38,0.24 14.31,0.08 15.26,0 16.2,0 c 0.93,0 1.89,0.08 2.81,0.24 0.92,0.15 1.84,0.39 2.73,0.7 0.88,0.31 1.74,0.7 2.55,1.16 0.82,0.45 1.6,0.98 2.32,1.56 0.72,0.58 1.39,1.23 1.99,1.93 0.61,0.69 1.15,1.45 1.62,2.23 0.47,0.78 0.88,1.62 1.2,2.47 0.32,0.85 0.56,1.74 0.73,2.63 0.16,0.89 0.2,2.27 0.24,2.72 0.04,0.45 0.04,-0.45 0,0"
         stroke="none"
         stroke-width="0"
         fill="#1e1e1e"
         id="path120" />
      <path
         d="m 32.39,15.64 c 0,0.9 -0.08,1.82 -0.24,2.71 -0.17,0.89 -0.41,1.79 -0.73,2.64 -0.32,0.85 -0.73,1.68 -1.2,2.47 -0.47,0.78 -1.01,1.54 -1.62,2.23 -0.6,0.69 -1.27,1.35 -1.99,1.93 -0.72,0.58 -1.5,1.11 -2.32,1.56 -0.81,0.45 -1.67,0.84 -2.55,1.15 -0.89,0.31 -1.81,0.55 -2.73,0.71 -0.92,0.16 -1.88,0.24 -2.81,0.24 -0.94,0 -1.89,-0.08 -2.82,-0.24 -0.92,-0.16 -1.84,-0.4 -2.72,-0.71 C 9.78,30.02 8.91,29.63 8.1,29.18 7.29,28.73 6.5,28.2 5.79,27.62 5.07,27.04 4.39,26.38 3.79,25.69 3.19,25 2.64,24.24 2.17,23.46 1.7,22.67 1.3,21.84 0.98,20.99 0.66,20.14 0.41,19.24 0.25,18.35 0.08,17.46 0,16.54 0,15.64 0,14.73 0.08,13.81 0.25,12.92 0.41,12.03 0.66,11.14 0.98,10.29 1.3,9.44 1.7,8.6 2.17,7.82 2.64,7.04 3.19,6.28 3.79,5.59 4.39,4.89 5.07,4.24 5.79,3.66 6.5,3.08 7.29,2.55 8.1,2.1 8.91,1.64 9.78,1.25 10.66,0.94 11.54,0.63 12.46,0.39 13.38,0.24 14.31,0.08 15.26,0 16.2,0 c 0.93,0 1.89,0.08 2.81,0.24 0.92,0.15 1.84,0.39 2.73,0.7 0.88,0.31 1.74,0.7 2.55,1.16 0.82,0.45 1.6,0.98 2.32,1.56 0.72,0.58 1.39,1.23 1.99,1.93 0.61,0.69 1.15,1.45 1.62,2.23 0.47,0.78 0.88,1.62 1.2,2.47 0.32,0.85 0.56,1.74 0.73,2.63 0.16,0.89 0.2,2.27 0.24,2.72 0.04,0.45 0.04,-0.45 0,0"
         stroke="#1e1e1e"
         stroke-width="2"
         fill="none"
         id="path122" />
    </g>
    <g
       stroke-linecap="round"
       transform="translate(119.80357,1253.1414)"
       id="g128">
      <path
         d="m 40.39,19.5 c 0,1.13 -0.1,2.27 -0.3,3.39 -0.21,1.11 -0.52,2.22 -0.92,3.28 -0.39,1.06 -0.9,2.1 -1.48,3.08 -0.59,0.98 -1.27,1.92 -2.02,2.78 -0.75,0.87 -1.6,1.68 -2.49,2.41 -0.9,0.72 -1.87,1.38 -2.89,1.95 -1.01,0.56 -2.09,1.05 -3.19,1.43 -1.09,0.39 -2.25,0.69 -3.4,0.88 -1.15,0.2 -2.33,0.3 -3.5,0.3 -1.17,0 -2.36,-0.1 -3.51,-0.3 -1.15,-0.19 -2.3,-0.49 -3.4,-0.88 C 12.19,37.44 11.11,36.95 10.1,36.39 9.09,35.82 8.11,35.16 7.21,34.44 6.32,33.71 5.48,32.9 4.73,32.03 3.97,31.17 3.29,30.23 2.71,29.25 2.12,28.27 1.62,27.23 1.22,26.17 0.82,25.11 0.51,24 0.31,22.89 0.1,21.77 0,20.63 0,19.5 0,18.37 0.1,17.23 0.31,16.11 0.51,15 0.82,13.89 1.22,12.83 1.62,11.77 2.12,10.73 2.71,9.75 3.29,8.77 3.97,7.83 4.73,6.97 5.48,6.1 6.32,5.29 7.21,4.56 8.11,3.84 9.09,3.18 10.1,2.61 11.11,2.05 12.19,1.56 13.29,1.18 14.39,0.79 15.54,0.49 16.69,0.3 17.84,0.1 19.03,0 20.2,0 c 1.17,0 2.35,0.1 3.5,0.3 1.15,0.19 2.31,0.49 3.4,0.88 1.1,0.38 2.18,0.87 3.19,1.43 1.02,0.57 1.99,1.23 2.89,1.95 0.89,0.73 1.74,1.54 2.49,2.41 0.75,0.86 1.43,1.8 2.02,2.78 0.58,0.98 1.09,2.02 1.48,3.08 0.4,1.06 0.71,2.17 0.92,3.28 0.2,1.12 0.25,2.83 0.3,3.39 0.05,0.56 0.05,-0.56 0,0"
         stroke="#1e1e1e"
         stroke-width="2"
         fill="none"
         id="path126" />
    </g>
    <g
       stroke-linecap="round"
       transform="translate(10,970.42917)"
       id="g132">
      <path
         d="m 19.75,0 m 0,0 c 73.13,0 146.26,0 220.5,0 M 19.75,0 c 87.04,0 174.08,0 220.5,0 m 0,0 C 253.42,0 260,6.58 260,19.75 M 240.25,0 C 253.42,0 260,6.58 260,19.75 m 0,0 c 0,12.73 0,25.46 0,39.5 m 0,-39.5 c 0,12.04 0,24.09 0,39.5 m 0,0 C 260,72.42 253.42,79 240.25,79 M 260,59.25 C 260,72.42 253.42,79 240.25,79 m 0,0 c -47.83,0 -95.67,0 -220.5,0 m 220.5,0 c -73.47,0 -146.94,0 -220.5,0 m 0,0 C 6.58,79 0,72.42 0,59.25 M 19.75,79 C 6.58,79 0,72.42 0,59.25 m 0,0 C 0,48.54 0,37.82 0,19.75 m 0,39.5 C 0,46.12 0,32.98 0,19.75 m 0,0 C 0,6.58 6.58,0 19.75,0 M 0,19.75 C 0,6.58 6.58,0 19.75,0"
         stroke="#1e1e1e"
         stroke-width="2"
         fill="none"
         id="path130" />
    </g>
    <g
       transform="translate(36.058334,998.42917)"
       id="g136">
      <text
         x="103.94167"
         y="0"
         font-family="Helvetica, 'Segoe UI Emoji'"
         font-size="20px"
         fill="#1e1e1e"
         text-anchor="middle"
         style="white-space:pre"
         direction="ltr"
         dominant-baseline="text-before-edge"
         id="text134">Generate final equation</text>
    </g>
    <g
       stroke-linecap="round"
       transform="translate(119.5,1081.4273)"
       id="g140">
      <path
         d="m 21,0 c 6.47,6.79 12.94,13.58 20,21 M 21,0 c 5.38,5.65 10.75,11.29 20,21 m 0,0 C 33.75,28.25 26.5,35.5 21,41 M 41,21 C 34.7,27.3 28.41,33.59 21,41 m 0,0 C 13.26,33.63 5.53,26.26 0,21 M 21,41 C 13.96,34.3 6.93,27.6 0,21 m 0,0 C 6.34,14.66 12.68,8.32 21,0 M 0,21 C 4.73,16.27 9.45,11.55 21,0"
         stroke="#1e1e1e"
         stroke-width="2"
         fill="none"
         id="path138" />
    </g>
    <g
       stroke-linecap="round"
       transform="translate(49,1153.2844)"
       id="g146">
      <path
         d="M 0,0 H 182 V 69 H 0"
         stroke="none"
         stroke-width="0"
         fill="#b2f2bb"
         id="path142" />
      <path
         d="M 0,0 C 56.94,0 113.89,0 182,0 M 0,0 c 53.4,0 106.79,0 182,0 m 0,0 c 0,17.57 0,35.15 0,69 m 0,-69 c 0,17.88 0,35.76 0,69 m 0,0 c -36.51,0 -73.02,0 -182,0 m 182,0 C 121.4,69 60.81,69 0,69 m 0,0 C 0,53.64 0,38.28 0,0 M 0,69 C 0,45.36 0,21.72 0,0"
         stroke="#1e1e1e"
         stroke-width="2"
         fill="none"
         id="path144" />
    </g>
    <g
       transform="translate(89.974998,1176.2844)"
       id="g150">
      <text
         x="50.025002"
         y="0"
         font-family="Helvetica, 'Segoe UI Emoji'"
         font-size="20px"
         fill="#1e1e1e"
         text-anchor="middle"
         style="white-space:pre"
         direction="ltr"
         dominant-baseline="text-before-edge"
         id="text148">Return true</text>
    </g>
    <g
       stroke-linecap="round"
       id="g164">
      <g
         transform="translate(140,49.612534)"
         id="g154">
        <path
           d="M 0,0 C 0,7.82 0,15.65 0,30.81 M 0,0 c 0,9.54 0,19.08 0,30.81"
           stroke="#1e1e1e"
           stroke-width="2"
           fill="none"
           id="path152" />
      </g>
      <g
         transform="translate(140,49.612534)"
         id="g158">
        <path
           d="m -5.27,16.33 c 1.34,3.68 2.68,7.36 5.27,14.48 M -5.27,16.33 c 1.63,4.49 3.26,8.97 5.27,14.48"
           stroke="#1e1e1e"
           stroke-width="2"
           fill="none"
           id="path156" />
      </g>
      <g
         transform="translate(140,49.612534)"
         id="g162">
        <path
           d="M 5.27,16.33 C 3.93,20.01 2.59,23.69 0,30.81 M 5.27,16.33 C 3.64,20.82 2.01,25.3 0,30.81"
           stroke="#1e1e1e"
           stroke-width="2"
           fill="none"
           id="path160" />
      </g>
    </g>
    <g
       stroke-linecap="round"
       id="g180">
      <g
         transform="translate(140,234.47466)"
         id="g170">
        <path
           d="M 0,0 C 0,6.01 0,12.01 0,28.53 M 0,0 c 0,10.06 0,20.11 0,28.53"
           stroke="#1e1e1e"
           stroke-width="2"
           fill="none"
           id="path168" />
      </g>
      <g
         transform="translate(140,234.47466)"
         id="g174">
        <path
           d="m -4.88,15.12 c 1.03,2.83 2.06,5.65 4.88,13.41 M -4.88,15.12 c 1.72,4.73 3.44,9.45 4.88,13.41"
           stroke="#1e1e1e"
           stroke-width="2"
           fill="none"
           id="path172" />
      </g>
      <g
         transform="translate(140,234.47466)"
         id="g178">
        <path
           d="M 4.88,15.12 C 3.85,17.95 2.82,20.77 0,28.53 M 4.88,15.12 C 3.16,19.85 1.44,24.57 0,28.53"
           stroke="#1e1e1e"
           stroke-width="2"
           fill="none"
           id="path176" />
      </g>
    </g>
    <g
       stroke-linecap="round"
       id="g196">
      <g
         transform="translate(139.42944,121.98659)"
         id="g186">
        <path
           d="M 0,0 C 0,6.24 0,12.48 0,26.9 M 0,0 c 0,9.77 0,19.54 0,26.9"
           stroke="#1e1e1e"
           stroke-width="2"
           fill="none"
           id="path184" />
      </g>
      <g
         transform="translate(139.42944,121.98659)"
         id="g190">
        <path
           d="M -4.6,14.26 C -3.53,17.2 -2.47,20.13 0,26.9 M -4.6,14.26 c 1.67,4.59 3.34,9.18 4.6,12.64"
           stroke="#1e1e1e"
           stroke-width="2"
           fill="none"
           id="path188" />
      </g>
      <g
         transform="translate(139.42944,121.98659)"
         id="g194">
        <path
           d="M 4.6,14.26 C 3.53,17.2 2.47,20.13 0,26.9 M 4.6,14.26 C 2.93,18.85 1.26,23.44 0,26.9"
           stroke="#1e1e1e"
           stroke-width="2"
           fill="none"
           id="path192" />
      </g>
    </g>
    <g
       stroke-linecap="round"
       id="g212">
      <g
         transform="translate(140,301.80098)"
         id="g202">
        <path
           d="M 0,0 C 0,6.16 0,12.32 0,29.67 M 0,0 c 0,6.41 0,12.82 0,29.67"
           stroke="#1e1e1e"
           stroke-width="2"
           fill="none"
           id="path200" />
      </g>
      <g
         transform="translate(140,301.80098)"
         id="g206">
        <path
           d="m -5.07,15.73 c 1.05,2.89 2.1,5.79 5.07,13.94 M -5.07,15.73 c 1.09,3.01 2.19,6.02 5.07,13.94"
           stroke="#1e1e1e"
           stroke-width="2"
           fill="none"
           id="path204" />
      </g>
      <g
         transform="translate(140,301.80098)"
         id="g210">
        <path
           d="M 5.07,15.73 C 4.02,18.62 2.97,21.52 0,29.67 M 5.07,15.73 C 3.98,18.74 2.88,21.75 0,29.67"
           stroke="#1e1e1e"
           stroke-width="2"
           fill="none"
           id="path208" />
      </g>
    </g>
    <g
       stroke-linecap="round"
       id="g228">
      <g
         transform="translate(140,428.46577)"
         id="g218">
        <path
           d="M 0,0 C 0,12.12 0,24.23 0,30.81 M 0,0 c 0,7.83 0,15.67 0,30.81"
           stroke="#1e1e1e"
           stroke-width="2"
           fill="none"
           id="path216" />
      </g>
      <g
         transform="translate(140,428.46577)"
         id="g222">
        <path
           d="M -5.27,16.33 C -3.2,22.03 -1.12,27.72 0,30.81 M -5.27,16.33 c 1.34,3.68 2.68,7.37 5.27,14.48"
           stroke="#1e1e1e"
           stroke-width="2"
           fill="none"
           id="path220" />
      </g>
      <g
         transform="translate(140,428.46577)"
         id="g226">
        <path
           d="M 5.27,16.33 C 3.2,22.03 1.12,27.72 0,30.81 M 5.27,16.33 C 3.93,20.01 2.59,23.7 0,30.81"
           stroke="#1e1e1e"
           stroke-width="2"
           fill="none"
           id="path224" />
      </g>
    </g>
    <g
       stroke-linecap="round"
       id="g244">
      <g
         transform="translate(140,500.3566)"
         id="g234">
        <path
           d="M 0,0 C 0,11.68 0,23.37 0,29.67 M 0,0 c 0,9.07 0,18.14 0,29.67"
           stroke="#1e1e1e"
           stroke-width="2"
           fill="none"
           id="path232" />
      </g>
      <g
         transform="translate(140,500.3566)"
         id="g238">
        <path
           d="M -5.07,15.73 C -3.08,21.22 -1.08,26.71 0,29.67 M -5.07,15.73 c 1.55,4.26 3.1,8.52 5.07,13.94"
           stroke="#1e1e1e"
           stroke-width="2"
           fill="none"
           id="path236" />
      </g>
      <g
         transform="translate(140,500.3566)"
         id="g242">
        <path
           d="M 5.07,15.73 C 3.08,21.22 1.08,26.71 0,29.67 M 5.07,15.73 C 3.52,19.99 1.97,24.25 0,29.67"
           stroke="#1e1e1e"
           stroke-width="2"
           fill="none"
           id="path240" />
      </g>
    </g>
    <g
       stroke-linecap="round"
       id="g260">
      <g
         transform="translate(140,609.90452)"
         id="g250">
        <path
           d="M 0,0 C 0,9.02 0,18.04 0,29.67 M 0,0 c 0,11.46 0,22.92 0,29.67"
           stroke="#1e1e1e"
           stroke-width="2"
           fill="none"
           id="path248" />
      </g>
      <g
         transform="translate(140,609.90452)"
         id="g254">
        <path
           d="m -5.07,15.73 c 1.54,4.24 3.08,8.48 5.07,13.94 M -5.07,15.73 C -3.11,21.11 -1.15,26.5 0,29.67"
           stroke="#1e1e1e"
           stroke-width="2"
           fill="none"
           id="path252" />
      </g>
      <g
         transform="translate(140,609.90452)"
         id="g258">
        <path
           d="M 5.07,15.73 C 3.53,19.97 1.99,24.21 0,29.67 M 5.07,15.73 C 3.11,21.11 1.15,26.5 0,29.67"
           stroke="#1e1e1e"
           stroke-width="2"
           fill="none"
           id="path256" />
      </g>
    </g>
    <g
       stroke-linecap="round"
       id="g276">
      <g
         transform="translate(140,722.87582)"
         id="g266">
        <path
           d="M 0,0 C 0,9.34 0,18.68 0,26.25 M 0,0 c 0,7.29 0,14.57 0,26.25"
           stroke="#1e1e1e"
           stroke-width="2"
           fill="none"
           id="path264" />
      </g>
      <g
         transform="translate(140,722.87582)"
         id="g270">
        <path
           d="m -4.49,13.91 c 1.6,4.39 3.2,8.78 4.49,12.34 M -4.49,13.91 C -3.24,17.34 -2,20.76 0,26.25"
           stroke="#1e1e1e"
           stroke-width="2"
           fill="none"
           id="path268" />
      </g>
      <g
         transform="translate(140,722.87582)"
         id="g274">
        <path
           d="M 4.49,13.91 C 2.89,18.3 1.29,22.69 0,26.25 M 4.49,13.91 C 3.24,17.34 2,20.76 0,26.25"
           stroke="#1e1e1e"
           stroke-width="2"
           fill="none"
           id="path272" />
      </g>
    </g>
    <g
       stroke-linecap="round"
       id="g292">
      <g
         transform="translate(140,830.71206)"
         id="g282">
        <path
           d="M 0,0 C 0,5.25 0,10.51 0,26.25 M 0,0 c 0,8.8 0,17.61 0,26.25"
           stroke="#1e1e1e"
           stroke-width="2"
           fill="none"
           id="path280" />
      </g>
      <g
         transform="translate(140,830.71206)"
         id="g286">
        <path
           d="m -4.49,13.91 c 0.9,2.47 1.8,4.94 4.49,12.34 M -4.49,13.91 c 1.51,4.14 3.01,8.28 4.49,12.34"
           stroke="#1e1e1e"
           stroke-width="2"
           fill="none"
           id="path284" />
      </g>
      <g
         transform="translate(140,830.71206)"
         id="g290">
        <path
           d="M 4.49,13.91 C 3.59,16.38 2.69,18.85 0,26.25 M 4.49,13.91 C 2.98,18.05 1.48,22.19 0,26.25"
           stroke="#1e1e1e"
           stroke-width="2"
           fill="none"
           id="path288" />
      </g>
    </g>
    <g
       stroke-linecap="round"
       id="g308">
      <g
         transform="translate(140,941.71327)"
         id="g298">
        <path
           d="M 0,0 C 0,6.56 0,13.13 0,24.79 M 0,0 c 0,7.28 0,14.56 0,24.79"
           stroke="#1e1e1e"
           stroke-width="2"
           fill="none"
           id="path296" />
      </g>
      <g
         transform="translate(140,941.71327)"
         id="g302">
        <path
           d="m -4.24,13.14 c 1.12,3.09 2.25,6.17 4.24,11.65 M -4.24,13.14 c 1.25,3.42 2.49,6.85 4.24,11.65"
           stroke="#1e1e1e"
           stroke-width="2"
           fill="none"
           id="path300" />
      </g>
      <g
         transform="translate(140,941.71327)"
         id="g306">
        <path
           d="M 4.24,13.14 C 3.12,16.23 1.99,19.31 0,24.79 M 4.24,13.14 C 2.99,16.56 1.75,19.99 0,24.79"
           stroke="#1e1e1e"
           stroke-width="2"
           fill="none"
           id="path304" />
      </g>
    </g>
    <g
       stroke-linecap="round"
       id="g324">
      <g
         transform="translate(140,1050.949)"
         id="g314">
        <path
           d="M 0,0 C 0,10.88 0,21.76 0,27.73 M 0,0 c 0,9.73 0,19.45 0,27.73"
           stroke="#1e1e1e"
           stroke-width="2"
           fill="none"
           id="path312" />
      </g>
      <g
         transform="translate(140,1050.949)"
         id="g318">
        <path
           d="M -4.74,14.7 C -2.88,19.81 -1.02,24.93 0,27.73 M -4.74,14.7 c 1.66,4.57 3.33,9.14 4.74,13.03"
           stroke="#1e1e1e"
           stroke-width="2"
           fill="none"
           id="path316" />
      </g>
      <g
         transform="translate(140,1050.949)"
         id="g322">
        <path
           d="M 4.74,14.7 C 2.88,19.81 1.02,24.93 0,27.73 M 4.74,14.7 C 3.08,19.27 1.41,23.84 0,27.73"
           stroke="#1e1e1e"
           stroke-width="2"
           fill="none"
           id="path320" />
      </g>
    </g>
    <g
       stroke-linecap="round"
       id="g340">
      <g
         transform="translate(140,1122.8399)"
         id="g330">
        <path
           d="M 0,0 C 0,5.29 0,10.58 0,26.25 M 0,0 c 0,6.46 0,12.92 0,26.25"
           stroke="#1e1e1e"
           stroke-width="2"
           fill="none"
           id="path328" />
      </g>
      <g
         transform="translate(140,1122.8399)"
         id="g334">
        <path
           d="M -4.49,13.91 C -3.58,16.4 -2.68,18.89 0,26.25 M -4.49,13.91 c 1.11,3.04 2.21,6.07 4.49,12.34"
           stroke="#1e1e1e"
           stroke-width="2"
           fill="none"
           id="path332" />
      </g>
      <g
         transform="translate(140,1122.8399)"
         id="g338">
        <path
           d="M 4.49,13.91 C 3.58,16.4 2.68,18.89 0,26.25 M 4.49,13.91 C 3.38,16.95 2.28,19.98 0,26.25"
           stroke="#1e1e1e"
           stroke-width="2"
           fill="none"
           id="path336" />
      </g>
    </g>
    <g
       stroke-linecap="round"
       id="g356">
      <g
         transform="translate(140,1224.3999)"
         id="g346">
        <path
           d="M 0,0 C 0,6.4 0,12.8 0,26.25 M 0,0 c 0,8.99 0,17.98 0,26.25"
           stroke="#1e1e1e"
           stroke-width="2"
           fill="none"
           id="path344" />
      </g>
      <g
         transform="translate(140,1224.3999)"
         id="g350">
        <path
           d="m -4.49,13.91 c 1.1,3.01 2.19,6.02 4.49,12.34 M -4.49,13.91 c 1.54,4.23 3.08,8.45 4.49,12.34"
           stroke="#1e1e1e"
           stroke-width="2"
           fill="none"
           id="path348" />
      </g>
      <g
         transform="translate(140,1224.3999)"
         id="g354">
        <path
           d="M 4.49,13.91 C 3.39,16.92 2.3,19.93 0,26.25 M 4.49,13.91 C 2.95,18.14 1.41,22.36 0,26.25"
           stroke="#1e1e1e"
           stroke-width="2"
           fill="none"
           id="path352" />
      </g>
    </g>
    <g
       stroke-linecap="round"
       transform="translate(710.28673,635.43276)"
       id="g364">
      <path
         d="m 32.39,15.64 c 0,0.9 -0.08,1.82 -0.24,2.71 -0.17,0.89 -0.41,1.79 -0.73,2.64 -0.32,0.85 -0.73,1.68 -1.2,2.47 -0.47,0.78 -1.01,1.54 -1.62,2.23 -0.6,0.69 -1.27,1.35 -1.99,1.93 -0.72,0.58 -1.5,1.11 -2.32,1.56 -0.81,0.45 -1.67,0.84 -2.55,1.15 -0.89,0.31 -1.81,0.55 -2.73,0.71 -0.92,0.16 -1.88,0.24 -2.81,0.24 -0.94,0 -1.89,-0.08 -2.82,-0.24 -0.92,-0.16 -1.84,-0.4 -2.72,-0.71 C 9.78,30.02 8.91,29.63 8.1,29.18 7.29,28.73 6.5,28.2 5.79,27.62 5.07,27.04 4.39,26.38 3.79,25.69 3.19,25 2.64,24.24 2.17,23.46 1.7,22.67 1.3,21.84 0.98,20.99 0.66,20.14 0.41,19.24 0.25,18.35 0.08,17.46 0,16.54 0,15.64 0,14.73 0.08,13.81 0.25,12.92 0.41,12.03 0.66,11.14 0.98,10.29 1.3,9.44 1.7,8.6 2.17,7.82 2.64,7.04 3.19,6.28 3.79,5.59 4.39,4.89 5.07,4.24 5.79,3.66 6.5,3.08 7.29,2.55 8.1,2.1 8.91,1.64 9.78,1.25 10.66,0.94 11.54,0.63 12.46,0.39 13.38,0.24 14.31,0.08 15.26,0 16.2,0 c 0.93,0 1.89,0.08 2.81,0.24 0.92,0.15 1.84,0.39 2.73,0.7 0.88,0.31 1.74,0.7 2.55,1.16 0.82,0.45 1.6,0.98 2.32,1.56 0.72,0.58 1.39,1.23 1.99,1.93 0.61,0.69 1.15,1.45 1.62,2.23 0.47,0.78 0.88,1.62 1.2,2.47 0.32,0.85 0.56,1.74 0.73,2.63 0.16,0.89 0.2,2.27 0.24,2.72 0.04,0.45 0.04,-0.45 0,0"
         stroke="none"
         stroke-width="0"
         fill="#1e1e1e"
         id="path360" />
      <path
         d="m 32.39,15.64 c 0,0.9 -0.08,1.82 -0.24,2.71 -0.17,0.89 -0.41,1.79 -0.73,2.64 -0.32,0.85 -0.73,1.68 -1.2,2.47 -0.47,0.78 -1.01,1.54 -1.62,2.23 -0.6,0.69 -1.27,1.35 -1.99,1.93 -0.72,0.58 -1.5,1.11 -2.32,1.56 -0.81,0.45 -1.67,0.84 -2.55,1.15 -0.89,0.31 -1.81,0.55 -2.73,0.71 -0.92,0.16 -1.88,0.24 -2.81,0.24 -0.94,0 -1.89,-0.08 -2.82,-0.24 -0.92,-0.16 -1.84,-0.4 -2.72,-0.71 C 9.78,30.02 8.91,29.63 8.1,29.18 7.29,28.73 6.5,28.2 5.79,27.62 5.07,27.04 4.39,26.38 3.79,25.69 3.19,25 2.64,24.24 2.17,23.46 1.7,22.67 1.3,21.84 0.98,20.99 0.66,20.14 0.41,19.24 0.25,18.35 0.08,17.46 0,16.54 0,15.64 0,14.73 0.08,13.81 0.25,12.92 0.41,12.03 0.66,11.14 0.98,10.29 1.3,9.44 1.7,8.6 2.17,7.82 2.64,7.04 3.19,6.28 3.79,5.59 4.39,4.89 5.07,4.24 5.79,3.66 6.5,3.08 7.29,2.55 8.1,2.1 8.91,1.64 9.78,1.25 10.66,0.94 11.54,0.63 12.46,0.39 13.38,0.24 14.31,0.08 15.26,0 16.2,0 c 0.93,0 1.89,0.08 2.81,0.24 0.92,0.15 1.84,0.39 2.73,0.7 0.88,0.31 1.74,0.7 2.55,1.16 0.82,0.45 1.6,0.98 2.32,1.56 0.72,0.58 1.39,1.23 1.99,1.93 0.61,0.69 1.15,1.45 1.62,2.23 0.47,0.78 0.88,1.62 1.2,2.47 0.32,0.85 0.56,1.74 0.73,2.63 0.16,0.89 0.2,2.27 0.24,2.72 0.04,0.45 0.04,-0.45 0,0"
         stroke="#1e1e1e"
         stroke-width="2"
         fill="none"
         id="path362" />
    </g>
    <g
       stroke-linecap="round"
       transform="translate(706.28673,631.57069)"
       id="g368">
      <path
         d="m 40.39,19.5 c 0,1.13 -0.1,2.27 -0.3,3.39 -0.21,1.11 -0.52,2.22 -0.92,3.28 -0.39,1.06 -0.9,2.1 -1.48,3.08 -0.59,0.98 -1.27,1.92 -2.02,2.78 -0.75,0.87 -1.6,1.68 -2.49,2.41 -0.9,0.72 -1.87,1.38 -2.89,1.95 -1.01,0.56 -2.09,1.05 -3.19,1.43 -1.09,0.39 -2.25,0.69 -3.4,0.88 -1.15,0.2 -2.33,0.3 -3.5,0.3 -1.17,0 -2.36,-0.1 -3.51,-0.3 -1.15,-0.19 -2.3,-0.49 -3.4,-0.88 C 12.19,37.44 11.11,36.95 10.1,36.39 9.09,35.82 8.11,35.16 7.21,34.44 6.32,33.71 5.48,32.9 4.73,32.03 3.97,31.17 3.29,30.23 2.71,29.25 2.12,28.27 1.62,27.23 1.22,26.17 0.82,25.11 0.51,24 0.31,22.89 0.1,21.77 0,20.63 0,19.5 0,18.37 0.1,17.23 0.31,16.11 0.51,15 0.82,13.89 1.22,12.83 1.62,11.77 2.12,10.73 2.71,9.75 3.29,8.77 3.97,7.83 4.73,6.97 5.48,6.1 6.32,5.29 7.21,4.56 8.11,3.84 9.09,3.18 10.1,2.61 11.11,2.05 12.19,1.56 13.29,1.18 14.39,0.79 15.54,0.49 16.69,0.3 17.84,0.1 19.03,0 20.2,0 c 1.17,0 2.35,0.1 3.5,0.3 1.15,0.19 2.31,0.49 3.4,0.88 1.1,0.38 2.18,0.87 3.19,1.43 1.02,0.57 1.99,1.23 2.89,1.95 0.89,0.73 1.74,1.54 2.49,2.41 0.75,0.86 1.43,1.8 2.02,2.78 0.58,0.98 1.09,2.02 1.48,3.08 0.4,1.06 0.71,2.17 0.92,3.28 0.2,1.12 0.25,2.83 0.3,3.39 0.05,0.56 0.05,-0.56 0,0"
         stroke="#1e1e1e"
         stroke-width="2"
         fill="none"
         id="path366" />
    </g>
    <g
       stroke-linecap="round"
       transform="translate(483.51761,616.57069)"
       id="g374">
      <path
         d="M 0,0 H 182 V 69 H 0"
         stroke="none"
         stroke-width="0"
         fill="#ffc9c9"
         id="path370" />
      <path
         d="M 0,0 C 51.93,0 103.87,0 182,0 M 0,0 c 67.73,0 135.47,0 182,0 m 0,0 c 0,18.63 0,37.25 0,69 m 0,-69 c 0,14.19 0,28.38 0,69 m 0,0 C 122.93,69 63.85,69 0,69 m 182,0 C 115.64,69 49.28,69 0,69 m 0,0 C 0,51.25 0,33.51 0,0 M 0,69 C 0,46.52 0,24.04 0,0"
         stroke="#1e1e1e"
         stroke-width="2"
         fill="none"
         id="path372" />
    </g>
    <g
       transform="translate(520.60928,639.57069)"
       id="g378">
      <text
         x="53.908333"
         y="0"
         font-family="Helvetica, 'Segoe UI Emoji'"
         font-size="20px"
         fill="#1e1e1e"
         text-anchor="middle"
         style="white-space:pre"
         direction="ltr"
         dominant-baseline="text-before-edge"
         id="text376">Return false</text>
    </g>
    <g
       stroke-linecap="round"
       id="g392">
      <g
         transform="translate(664.57968,649.01235)"
         id="g382">
        <path
           d="M 0,0 C 15.72,0 31.43,0 41.81,0 M 0,0 c 15.19,0 30.37,0 41.81,0"
           stroke="#1e1e1e"
           stroke-width="2"
           fill="none"
           id="path380" />
      </g>
      <g
         transform="translate(664.57968,649.01235)"
         id="g386">
        <path
           d="M 22.17,7.15 C 29.55,4.46 36.93,1.77 41.81,0 M 22.17,7.15 C 29.3,4.55 36.44,1.96 41.81,0"
           stroke="#1e1e1e"
           stroke-width="2"
           fill="none"
           id="path384" />
      </g>
      <g
         transform="translate(664.57968,649.01235)"
         id="g390">
        <path
           d="M 22.17,-7.15 C 29.55,-4.46 36.93,-1.77 41.81,0 M 22.17,-7.15 c 7.13,2.6 14.27,5.19 19.64,7.15"
           stroke="#1e1e1e"
           stroke-width="2"
           fill="none"
           id="path388" />
      </g>
    </g>
    <g
       stroke-linecap="round"
       id="g408">
      <g
         transform="translate(160.50385,101.12625)"
         id="g398">
        <path
           d="M 0,0 C 107.53,0 215.05,0 414.94,0 M 0,0 c 109.59,0 219.17,0 414.94,0 m 0,0 c 0,123.41 0,246.83 0,513.97 M 414.94,0 c 0,178.09 0,356.19 0,513.97"
           stroke="#1e1e1e"
           stroke-width="2"
           fill="none"
           id="path396" />
      </g>
      <g
         transform="translate(160.50385,101.12625)"
         id="g402">
        <path
           d="m 404.68,485.78 c 2.66,7.3 5.32,14.61 10.26,28.19 m -10.26,-28.19 c 2.71,7.44 5.42,14.89 10.26,28.19"
           stroke="#1e1e1e"
           stroke-width="2"
           fill="none"
           id="path400" />
      </g>
      <g
         transform="translate(160.50385,101.12625)"
         id="g406">
        <path
           d="m 425.2,485.78 c -2.65,7.3 -5.31,14.61 -10.26,28.19 m 10.26,-28.19 c -2.71,7.44 -5.42,14.89 -10.26,28.19"
           stroke="#1e1e1e"
           stroke-width="2"
           fill="none"
           id="path404" />
      </g>
    </g>
    <g
       stroke-linecap="round"
       id="g424">
      <g
         transform="translate(159.13213,280.40797)"
         id="g414">
        <path
           d="M 0,0 C 155.29,0 310.59,0 390.47,0 M 0,0 c 124.24,0 248.48,0 390.47,0 m 0,0 c 0,103.71 0,207.42 0,334.69 M 390.47,0 c 0,90.38 0,180.77 0,334.69"
           stroke="#1e1e1e"
           stroke-width="2"
           fill="none"
           id="path412" />
      </g>
      <g
         transform="translate(159.13213,280.40797)"
         id="g418">
        <path
           d="m 380.21,306.49 c 4.08,11.22 8.16,22.43 10.26,28.2 m -10.26,-28.2 c 3.26,8.97 6.52,17.94 10.26,28.2"
           stroke="#1e1e1e"
           stroke-width="2"
           fill="none"
           id="path416" />
      </g>
      <g
         transform="translate(159.13213,280.40797)"
         id="g422">
        <path
           d="m 400.73,306.49 c -4.08,11.22 -8.16,22.43 -10.26,28.2 m 10.26,-28.2 c -3.27,8.97 -6.53,17.94 -10.26,28.2"
           stroke="#1e1e1e"
           stroke-width="2"
           fill="none"
           id="path420" />
      </g>
    </g>
    <g
       stroke-linecap="round"
       id="g440">
      <g
         transform="translate(159.13213,480.40278)"
         id="g430">
        <path
           d="M 0,0 C 78.13,0 156.26,0 367.34,0 M 0,0 c 98.07,0 196.14,0 367.34,0 m 0,0 c 0,34.27 0,68.54 0,136.05 M 367.34,0 c 0,40.9 0,81.8 0,136.05"
           stroke="#1e1e1e"
           stroke-width="2"
           fill="none"
           id="path428" />
      </g>
      <g
         transform="translate(159.13213,480.40278)"
         id="g434">
        <path
           d="m 357.08,107.86 c 2.18,6 4.36,11.99 10.26,28.19 m -10.26,-28.19 c 2.74,7.53 5.48,15.05 10.26,28.19"
           stroke="#1e1e1e"
           stroke-width="2"
           fill="none"
           id="path432" />
      </g>
      <g
         transform="translate(159.13213,480.40278)"
         id="g438">
        <path
           d="m 377.6,107.86 c -2.18,6 -4.37,11.99 -10.26,28.19 m 10.26,-28.19 c -2.74,7.53 -5.48,15.05 -10.26,28.19"
           stroke="#1e1e1e"
           stroke-width="2"
           fill="none"
           id="path436" />
      </g>
    </g>
    <g
       stroke-linecap="round"
       id="g456">
      <g
         transform="translate(161.12302,1104.0668)"
         id="g446">
        <path
           d="M 0,0 C 121.11,0 242.21,0 418.96,0 M 0,0 c 84.61,0 169.23,0 418.96,0 m 0,0 c 0,-84.52 0,-169.05 0,-416.87 m 0,416.87 c 0,-128.39 0,-256.78 0,-416.87"
           stroke="#1e1e1e"
           stroke-width="2"
           fill="none"
           id="path444" />
      </g>
      <g
         transform="translate(161.12302,1104.0668)"
         id="g450">
        <path
           d="m 429.22,-388.68 c -2.96,-8.14 -5.93,-16.29 -10.26,-28.19 m 10.26,28.19 c -2.07,-5.69 -4.14,-11.38 -10.26,-28.19"
           stroke="#1e1e1e"
           stroke-width="2"
           fill="none"
           id="path448" />
      </g>
      <g
         transform="translate(161.12302,1104.0668)"
         id="g454">
        <path
           d="m 408.7,-388.68 c 2.97,-8.14 5.93,-16.29 10.26,-28.19 m -10.26,28.19 c 2.07,-5.69 4.15,-11.38 10.26,-28.19"
           stroke="#1e1e1e"
           stroke-width="2"
           fill="none"
           id="path452" />
      </g>
    </g>
  </g>
  <mask
     id="mask458" />
</svg>
